<svg width="20" height="21" viewBox="0 0 20 21" fill="none" xmlns="http://www.w3.org/2000/svg">
<path d="M6.24992 2.56771C6.24992 2.10747 5.87682 1.73438 5.41659 1.73438C4.95635 1.73438 4.58325 2.10747 4.58325 2.56771V3.40104C4.58325 3.86128 4.95635 4.23438 5.41659 4.23438C5.87682 4.23438 6.24992 3.86128 6.24992 3.40104V2.56771Z" fill="white"/>
<path d="M15.4167 2.56771C15.4167 2.10747 15.0436 1.73438 14.5833 1.73438C14.1231 1.73438 13.75 2.10747 13.75 2.56771V3.40104C13.75 3.86128 14.1231 4.23438 14.5833 4.23438C15.0436 4.23438 15.4167 3.86128 15.4167 3.40104V2.56771Z" fill="white"/>
<path d="M1.66675 7.98438V17.5677C1.66675 18.0097 1.84234 18.4337 2.1549 18.7462C2.46746 19.0588 2.89139 19.2344 3.33341 19.2344H16.6667C17.1088 19.2344 17.5327 19.0588 17.8453 18.7462C18.1578 18.4337 18.3334 18.0097 18.3334 17.5677V7.98438H1.66675ZM6.66675 16.3177C6.66675 16.5387 6.57895 16.7507 6.42267 16.907C6.26639 17.0632 6.05443 17.151 5.83342 17.151H5.00008C4.77907 17.151 4.56711 17.0632 4.41083 16.907C4.25455 16.7507 4.16675 16.5387 4.16675 16.3177V15.4844C4.16675 15.2634 4.25455 15.0514 4.41083 14.8951C4.56711 14.7388 4.77907 14.651 5.00008 14.651H5.83342C6.05443 14.651 6.26639 14.7388 6.42267 14.8951C6.57895 15.0514 6.66675 15.2634 6.66675 15.4844V16.3177ZM6.66675 11.7344C6.66675 11.9554 6.57895 12.1673 6.42267 12.3236C6.26639 12.4799 6.05443 12.5677 5.83342 12.5677H5.00008C4.77907 12.5677 4.56711 12.4799 4.41083 12.3236C4.25455 12.1673 4.16675 11.9554 4.16675 11.7344V10.901C4.16675 10.68 4.25455 10.4681 4.41083 10.3118C4.56711 10.1555 4.77907 10.0677 5.00008 10.0677H5.83342C6.05443 10.0677 6.26639 10.1555 6.42267 10.3118C6.57895 10.4681 6.66675 10.68 6.66675 10.901V11.7344ZM11.2501 16.3177C11.2501 16.5387 11.1623 16.7507 11.006 16.907C10.8497 17.0632 10.6378 17.151 10.4167 17.151H9.58342C9.3624 17.151 9.15044 17.0632 8.99416 16.907C8.83788 16.7507 8.75008 16.5387 8.75008 16.3177V15.4844C8.75008 15.2634 8.83788 15.0514 8.99416 14.8951C9.15044 14.7388 9.3624 14.651 9.58342 14.651H10.4167C10.6378 14.651 10.8497 14.7388 11.006 14.8951C11.1623 15.0514 11.2501 15.2634 11.2501 15.4844V16.3177ZM11.2501 11.7344C11.2501 11.9554 11.1623 12.1673 11.006 12.3236C10.8497 12.4799 10.6378 12.5677 10.4167 12.5677H9.58342C9.3624 12.5677 9.15044 12.4799 8.99416 12.3236C8.83788 12.1673 8.75008 11.9554 8.75008 11.7344V10.901C8.75008 10.68 8.83788 10.4681 8.99416 10.3118C9.15044 10.1555 9.3624 10.0677 9.58342 10.0677H10.4167C10.6378 10.0677 10.8497 10.1555 11.006 10.3118C11.1623 10.4681 11.2501 10.68 11.2501 10.901V11.7344ZM15.8334 16.3177C15.8334 16.5387 15.7456 16.7507 15.5893 16.907C15.4331 17.0632 15.2211 17.151 15.0001 17.151H14.1667C13.9457 17.151 13.7338 17.0632 13.5775 16.907C13.4212 16.7507 13.3334 16.5387 13.3334 16.3177V15.4844C13.3334 15.2634 13.4212 15.0514 13.5775 14.8951C13.7338 14.7388 13.9457 14.651 14.1667 14.651H15.0001C15.2211 14.651 15.4331 14.7388 15.5893 14.8951C15.7456 15.0514 15.8334 15.2634 15.8334 15.4844V16.3177ZM15.8334 11.7344C15.8334 11.9554 15.7456 12.1673 15.5893 12.3236C15.4331 12.4799 15.2211 12.5677 15.0001 12.5677H14.1667C13.9457 12.5677 13.7338 12.4799 13.5775 12.3236C13.4212 12.1673 13.3334 11.9554 13.3334 11.7344V10.901C13.3334 10.68 13.4212 10.4681 13.5775 10.3118C13.7338 10.1555 13.9457 10.0677 14.1667 10.0677H15.0001C15.2211 10.0677 15.4331 10.1555 15.5893 10.3118C15.7456 10.4681 15.8334 10.68 15.8334 10.901V11.7344ZM18.3334 7.15104V4.65104C18.3334 4.20901 18.1578 3.78509 17.8453 3.47253C17.5327 3.15997 17.1088 2.98438 16.6667 2.98438H16.2501V3.40104C16.2501 4.32021 15.5026 5.06771 14.5834 5.06771C13.6642 5.06771 12.9167 4.32021 12.9167 3.40104V2.98438H7.08342V3.40104C7.08342 4.32021 6.33592 5.06771 5.41675 5.06771C4.49758 5.06771 3.75008 4.32021 3.75008 3.40104V2.98438H3.33341C2.89139 2.98438 2.46746 3.15997 2.1549 3.47253C1.84234 3.78509 1.66675 4.20901 1.66675 4.65104V7.15104H18.3334Z" fill="white"/>
</svg>
