<svg width="56" height="57" viewBox="0 0 56 57" fill="none" xmlns="http://www.w3.org/2000/svg">
<rect x="0.0983887" y="0.503418" width="55.8032" height="56" rx="27.9016" fill="#05061B"/>
<path d="M29.4581 5.7546C29.4148 5.7546 29.3716 5.75739 29.3256 5.76297C29.2865 5.76855 29.253 5.77413 29.2321 5.77832C29.1247 5.79226 29.0521 5.88433 29.0521 6.00709L29.0856 7.61692L28.0924 5.84527C28.0798 5.82295 28.0687 5.80621 28.0589 5.79226C28.0184 5.73368 27.9571 5.7002 27.8887 5.7002C27.8762 5.7002 27.8552 5.7002 27.8231 5.70299C27.7938 5.70438 27.7632 5.70717 27.7269 5.71136C27.6934 5.71554 27.6599 5.71973 27.6264 5.72391C27.5874 5.72949 27.5553 5.73507 27.5246 5.74344C27.5204 5.74344 27.5162 5.74623 27.5135 5.74763C27.4019 5.78947 27.3628 5.8927 27.3628 5.9764C27.3628 6.02802 27.3767 6.07684 27.3991 6.11032L27.5274 6.34608L27.48 8.97843C27.48 9.10956 27.5679 9.20861 27.6836 9.20861C27.7199 9.20861 27.7604 9.20721 27.805 9.20303C27.8357 9.20024 27.8775 9.19605 27.9096 9.18908C28.017 9.17513 28.0896 9.08306 28.0896 8.9603L28.0561 7.29049L29.0507 9.06492C29.0675 9.10119 29.087 9.12909 29.1107 9.15141C29.1707 9.20721 29.2446 9.20721 29.2684 9.20721C29.2865 9.20721 29.306 9.20582 29.3242 9.20442H29.3451C29.38 9.20163 29.4093 9.19745 29.4274 9.19466C29.5376 9.18489 29.6171 9.09003 29.6171 8.97006V8.50274L29.6631 5.98617C29.6631 5.85504 29.5753 5.756 29.4595 5.756L29.4581 5.7546Z" fill="#DBDBDB"/>
<path d="M29.2586 49.2839C29.1791 49.1974 29.087 49.1248 28.9866 49.0648C28.8987 49.0132 28.8094 48.963 28.7188 48.917C28.6434 48.8793 28.5709 48.8416 28.5025 48.8054C28.444 48.7747 28.3937 48.7384 28.3505 48.7008C28.3156 48.6701 28.2877 48.6324 28.2668 48.5919C28.2501 48.5585 28.2417 48.5152 28.2417 48.4594C28.2417 48.3855 28.2501 48.3241 28.2682 48.2753C28.2849 48.2292 28.3059 48.1944 28.3324 48.1679C28.3589 48.1414 28.3896 48.1204 28.4244 48.1079C28.5053 48.0786 28.6072 48.0786 28.6797 48.1079C28.7132 48.1218 28.7453 48.1428 28.7718 48.1721C28.8011 48.2041 28.8276 48.246 28.8499 48.2976C28.8736 48.3534 28.8917 48.4245 28.9029 48.5082L28.9127 48.5836C28.9224 48.6547 28.988 48.7049 29.0578 48.6952L29.2782 48.6659C29.3423 48.6575 29.3912 48.6017 29.3912 48.5375V48.4622C29.3912 48.4497 29.3912 48.4134 29.3884 48.3506C29.3884 48.2906 29.3842 48.2237 29.3814 48.1483L29.373 47.9307C29.3702 47.8568 29.3674 47.7982 29.3633 47.7466C29.3577 47.6978 29.3423 47.6531 29.3158 47.6113C29.2837 47.5596 29.2349 47.522 29.1833 47.5052C29.0954 47.4759 28.9992 47.4522 28.8987 47.4341C28.649 47.3909 28.4398 47.3992 28.218 47.4634C28.0799 47.5025 27.9557 47.5708 27.8469 47.6643C27.7353 47.7605 27.6446 47.8875 27.5777 48.0423C27.5107 48.1972 27.4758 48.3855 27.4758 48.6045C27.4758 48.7886 27.5023 48.9491 27.5553 49.0816C27.607 49.2113 27.6753 49.3243 27.759 49.4164C27.8385 49.5043 27.9292 49.5796 28.0296 49.641C28.1175 49.6954 28.2068 49.747 28.2947 49.7944C28.37 49.8349 28.4426 49.8739 28.5123 49.9102C28.5695 49.9409 28.6197 49.9772 28.6644 50.0148C28.7006 50.0469 28.7299 50.0832 28.7495 50.1237C28.7648 50.1543 28.7732 50.1934 28.7732 50.245C28.7732 50.3203 28.7634 50.3859 28.7439 50.4333C28.7243 50.4808 28.6992 50.5184 28.6685 50.5477C28.6379 50.577 28.6016 50.5993 28.5597 50.6119C28.4607 50.644 28.3407 50.6426 28.2473 50.6077C28.204 50.5924 28.1664 50.5659 28.1329 50.5324C28.098 50.4975 28.0687 50.4501 28.045 50.3915C28.0199 50.3301 28.0031 50.2534 27.9948 50.1641L27.9878 50.0832C27.985 50.0469 27.9669 50.0148 27.939 49.9925C27.9111 49.9702 27.8748 49.9604 27.8399 49.9646L27.6167 49.9953C27.5526 50.0037 27.5037 50.0595 27.5037 50.1237V50.199C27.5037 50.2101 27.5037 50.2506 27.5065 50.3189C27.5079 50.3845 27.5093 50.4571 27.5121 50.5366C27.5135 50.6175 27.5163 50.697 27.5191 50.7751C27.5219 50.856 27.5247 50.9174 27.5288 50.9676C27.5344 51.0164 27.5498 51.0625 27.5763 51.1043C27.6097 51.1573 27.6572 51.1936 27.713 51.2103C27.812 51.241 27.9153 51.2648 28.0185 51.2815C28.1217 51.2982 28.2263 51.3066 28.331 51.3066C28.4202 51.3066 28.5109 51.2996 28.6016 51.2843C28.6964 51.2689 28.7899 51.2424 28.8778 51.2062C28.9685 51.1685 29.0536 51.1183 29.1317 51.0555C29.214 50.9899 29.2865 50.9104 29.3465 50.817C29.4079 50.7235 29.4553 50.6133 29.4902 50.4891C29.5237 50.3678 29.5404 50.2297 29.5404 50.0776C29.5404 49.8963 29.5139 49.7386 29.4609 49.6075C29.4093 49.4806 29.3409 49.3704 29.2558 49.2797L29.2586 49.2839Z" fill="#DBDBDB"/>
<path d="M9.31607 26.8509C9.30352 26.8509 9.28538 26.8509 9.26167 26.8509C9.24074 26.8509 9.21842 26.8537 9.19331 26.855C9.16402 26.8564 9.13472 26.8606 9.10403 26.8648C9.06916 26.8704 9.03708 26.8774 9.00778 26.8871C8.90176 26.9192 8.82643 26.9932 8.79435 27.095L8.36329 28.5639L7.86528 27.0211C7.84714 26.9694 7.82203 26.9276 7.78576 26.8941C7.71881 26.8341 7.6365 26.8271 7.57931 26.8271C7.53885 26.8271 7.49003 26.8313 7.42446 26.8383C7.35332 26.8453 7.28915 26.855 7.22358 26.869C7.1622 26.8843 7.1078 26.922 7.07013 26.9764C7.0241 27.0434 7.01433 27.1271 7.04084 27.1996L7.20684 27.7158L6.92226 28.5793L6.43541 27.0601C6.42006 27.0057 6.39635 26.9625 6.36566 26.9248C6.31405 26.8634 6.23872 26.8299 6.15502 26.8299C6.14107 26.8299 6.11038 26.8313 6.05876 26.8369C6.01691 26.8411 5.96809 26.8467 5.9095 26.8537C5.85091 26.8606 5.78674 26.869 5.71699 26.8788C5.64445 26.8899 5.5733 26.9025 5.50216 26.9164L5.44217 26.929C5.37103 26.9429 5.3236 27.0099 5.33057 27.081L5.35847 27.3377C5.36266 27.3754 5.38219 27.4103 5.41288 27.434C5.44357 27.4577 5.48263 27.4675 5.52029 27.4605L5.59004 27.4493C5.60399 27.4465 5.61655 27.4451 5.62771 27.4437C5.64445 27.4423 5.66119 27.4437 5.67095 27.4437C5.67514 27.4507 5.67932 27.4619 5.6863 27.48L6.43401 29.8055C6.45494 29.8752 6.50097 29.931 6.55956 29.9589C6.60978 29.984 6.65442 29.9882 6.69348 29.9882H6.73812C6.76184 29.9868 6.78555 29.9854 6.81066 29.984L6.87902 29.9798C6.90273 29.9784 6.92366 29.9757 6.95853 29.9715C7.00178 29.9631 7.03944 29.9436 7.07292 29.9143C7.10501 29.8864 7.12872 29.8501 7.15104 29.7957L7.52909 28.716L7.88062 29.8055C7.90155 29.8752 7.94758 29.931 8.00478 29.9589C8.04384 29.9784 8.08429 29.9882 8.12614 29.9882C8.14009 29.9882 8.15823 29.9882 8.18473 29.9882C8.20845 29.9882 8.23216 29.9868 8.25727 29.984L8.32563 29.9798C8.34934 29.9784 8.37027 29.9757 8.40514 29.9715C8.44699 29.9631 8.48605 29.9436 8.51953 29.9143C8.55162 29.8864 8.57533 29.8501 8.59626 29.7985L9.53788 27.1954C9.55183 27.1564 9.5588 27.1173 9.5588 27.0796C9.5588 26.9694 9.47231 26.8523 9.31328 26.8523L9.31607 26.8509Z" fill="#DBDBDB"/>
<path d="M50.5543 29.0286L50.2822 28.9701C50.2139 28.9561 50.1455 28.991 50.1176 29.0551L50.0911 29.1179C50.0339 29.2518 49.9837 29.3551 49.9405 29.4234C49.9126 29.4695 49.8805 29.5029 49.8498 29.5197C49.8135 29.5392 49.7633 29.5518 49.7047 29.5559C49.6154 29.5629 49.4983 29.5657 49.3532 29.5657H49.01V28.712L50.006 28.7455C50.006 28.7455 50.0088 28.7455 50.0116 28.7455C50.0842 28.7455 50.1455 28.6911 50.1553 28.6185L50.1651 28.546C50.1706 28.4999 50.1762 28.4581 50.1804 28.4176C50.1846 28.373 50.1874 28.3284 50.1874 28.2851C50.1874 28.1052 50.059 27.974 49.8819 27.974C49.8679 27.974 49.8275 27.9754 49.7633 27.9782L49.0114 28.0159V27.2375H49.402C49.5192 27.2375 49.614 27.2403 49.6852 27.2458C49.7368 27.25 49.7619 27.2626 49.7731 27.2696C49.7786 27.2723 49.7954 27.2877 49.8163 27.3337C49.8344 27.3742 49.8637 27.4551 49.9 27.603L49.9167 27.6727C49.9335 27.7425 50.0005 27.7899 50.0716 27.7829L50.3576 27.755C50.4315 27.748 50.4887 27.6853 50.4887 27.6099V27.536C50.4887 27.5276 50.4887 27.5053 50.4873 27.469L50.4831 27.3519C50.4817 27.3058 50.4789 27.257 50.4761 27.204C50.4734 27.1524 50.4706 27.1022 50.4692 27.0533C50.4678 27.0003 50.465 26.9515 50.4622 26.9055L50.4538 26.7869C50.4357 26.646 50.3213 26.5483 50.1734 26.5483L49.9433 26.5525C49.8749 26.5525 49.8093 26.5539 49.7466 26.5539H48.7198C48.6682 26.5539 48.6027 26.5581 48.519 26.5665C48.4395 26.5735 48.3585 26.5832 48.2734 26.5958C48.1911 26.6069 48.1116 26.6181 48.0349 26.6292C47.9568 26.6404 47.8968 26.6502 47.8549 26.6585L47.7796 26.6725C47.7043 26.6864 47.6527 26.7562 47.661 26.8315L47.6959 27.144C47.7001 27.1831 47.7196 27.2179 47.7503 27.243C47.781 27.2668 47.8215 27.2779 47.8591 27.2723L47.9414 27.2612C47.9735 27.257 48.0084 27.2542 48.0321 27.2556C48.0321 27.2584 48.0321 27.2612 48.0321 27.264V29.9591C48.0321 30.0149 48.0475 30.0693 48.0781 30.1209C48.1298 30.206 48.2204 30.2562 48.3265 30.2562H48.7952C48.9417 30.2562 49.0811 30.2562 49.2151 30.2562L49.9126 30.2618C50.0088 30.2618 50.0925 30.2618 50.1637 30.2618C50.3269 30.2618 50.4552 30.1725 50.5194 30.0051C50.5375 29.9452 50.5557 29.874 50.5738 29.7931C50.5919 29.715 50.6073 29.6383 50.6212 29.5629C50.6352 29.489 50.6463 29.4234 50.6547 29.3676C50.67 29.2686 50.6701 29.2421 50.6701 29.2323V29.1667C50.6701 29.0984 50.6226 29.0398 50.5557 29.0245L50.5543 29.0286Z" fill="#DBDBDB"/>
<path d="M37.1913 30.3577L45.3868 28.5544C45.519 28.5255 45.519 28.3375 45.3868 28.3086L37.1913 26.5063C36.8949 25.1481 36.2917 23.9036 35.4593 22.8491L37.81 19.1732C37.8823 19.0596 37.7501 18.9264 37.6354 18.9987L33.9596 21.3494C32.9051 20.5159 31.6606 19.9127 30.3024 19.6174L28.5001 11.4219C28.4712 11.2897 28.2832 11.2897 28.2543 11.4219L26.452 19.6174C25.0939 19.9138 23.8493 20.5159 22.7948 21.3494L19.119 18.9987C19.0054 18.9254 18.8721 19.0586 18.9455 19.1732L21.2962 22.8491C20.4637 23.9036 19.8606 25.1481 19.5641 26.5063L11.3687 28.3086C11.2365 28.3375 11.2365 28.5255 11.3687 28.5544L19.5641 30.3577C19.8606 31.7158 20.4627 32.9604 21.2962 34.0149L18.9455 37.6907C18.8721 37.8043 19.0054 37.9376 19.119 37.8642L22.7948 35.5135C23.8493 36.347 25.0939 36.9502 26.452 37.2456L28.2543 45.441C28.2832 45.5732 28.4712 45.5732 28.5001 45.441L30.3024 37.2456C31.6606 36.9492 32.9051 36.347 33.9596 35.5135L37.6354 37.8642C37.749 37.9376 37.8823 37.8043 37.81 37.6897L35.4593 34.0139C36.2917 32.9594 36.8949 31.7148 37.1913 30.3567V30.3577ZM33.7696 34.2184C33.5155 34.4549 33.247 34.6749 32.964 34.8773C32.0427 35.5363 30.9737 36.001 29.819 36.2138C29.3512 36.2995 28.8699 36.345 28.3782 36.345C27.8866 36.345 27.4053 36.2995 26.9385 36.2138C25.7838 36 24.7148 35.5352 23.7935 34.8773C23.5105 34.6759 23.241 34.4549 22.9869 34.2184L22.3765 34.6088C22.2629 34.6811 22.1297 34.5489 22.203 34.4353L22.5934 33.8249C22.3569 33.5708 22.1369 33.3012 21.9345 33.0182C21.2755 32.097 20.8108 31.028 20.598 29.8733C20.5123 29.4054 20.4668 28.9241 20.4668 28.4325C20.4668 27.9409 20.5112 27.4596 20.598 26.9927C20.8118 25.8381 21.2766 24.7691 21.9345 23.8478C22.1359 23.5648 22.3569 23.2952 22.5934 23.0412L22.203 22.4308C22.1297 22.3172 22.2629 22.1839 22.3765 22.2562L22.9869 22.6466C23.241 22.4101 23.5105 22.1901 23.7935 21.9877C24.7148 21.3287 25.7838 20.864 26.9385 20.6512C27.4064 20.5655 27.8877 20.52 28.3782 20.52C28.8688 20.52 29.3512 20.5655 29.819 20.6512C30.9737 20.865 32.0427 21.3298 32.964 21.9877C33.247 22.1891 33.5165 22.4101 33.7696 22.6466L34.381 22.2562C34.4946 22.1829 34.6279 22.3161 34.5556 22.4297L34.1652 23.0412C34.4017 23.2952 34.6217 23.5638 34.8241 23.8468C35.481 24.768 35.9468 25.837 36.1606 26.9917C36.2463 27.4596 36.2917 27.9409 36.2917 28.4315C36.2917 28.9221 36.2463 29.4044 36.1606 29.8723C35.9468 31.027 35.482 32.0959 34.8241 33.0172C34.6227 33.3002 34.4027 33.5698 34.1652 33.8228L34.5556 34.4342C34.6289 34.5479 34.4957 34.6811 34.381 34.6078L33.7696 34.2173V34.2184Z" fill="#DBDBDB"/>
<path d="M28.338 36.0632L28.3411 35.4859C28.3617 35.4859 28.3824 35.4859 28.402 35.4859V36.0622C28.3813 36.0622 28.3596 36.0622 28.3369 36.0622L28.338 36.0632ZM28.1727 36.0601C28.15 36.0601 28.1283 36.0591 28.1066 36.0581L28.1273 35.4818C28.1479 35.4818 28.1686 35.4828 28.1882 35.4838L28.1727 36.0601ZM28.5703 36.0612L28.5559 35.4849C28.5765 35.4849 28.5972 35.4838 28.6168 35.4828L28.6364 36.0591C28.6148 36.0591 28.592 36.0601 28.5703 36.0612ZM27.9403 36.0508C27.9176 36.0498 27.8959 36.0477 27.8732 36.0467L27.9114 35.4714C27.9321 35.4725 27.9517 35.4735 27.9723 35.4756L27.9403 36.0519V36.0508ZM28.8027 36.0519L28.7707 35.4756C28.7914 35.4745 28.812 35.4735 28.8327 35.4714L28.8688 36.0467C28.8471 36.0477 28.8244 36.0498 28.8027 36.0508V36.0519ZM27.7079 36.0343C27.6862 36.0323 27.6635 36.0302 27.6418 36.0281L27.6976 35.4539C27.7183 35.4559 27.7379 35.458 27.7585 35.459L27.7079 36.0333V36.0343ZM29.0351 36.0354L28.9866 35.4601C29.0072 35.458 29.0279 35.457 29.0475 35.4549L29.1012 36.0292C29.0795 36.0312 29.0568 36.0333 29.0351 36.0354ZM27.4766 36.0106C27.4549 36.0085 27.4322 36.0054 27.4105 36.0023L27.4838 35.4301C27.5045 35.4332 27.5241 35.4353 27.5447 35.4374L27.4766 36.0106ZM29.2665 36.0126L29.2004 35.4394C29.22 35.4373 29.2406 35.4342 29.2613 35.4322L29.3336 36.0044C29.3119 36.0075 29.2892 36.0095 29.2675 36.0126H29.2665ZM27.2463 35.9796C27.2246 35.9765 27.2019 35.9734 27.1802 35.9693L27.2711 35.3991C27.2907 35.4022 27.3113 35.4053 27.331 35.4084L27.2463 35.9785V35.9796ZM29.4968 35.9816L29.4131 35.4105C29.4338 35.4074 29.4534 35.4043 29.4741 35.4012L29.5629 35.9713C29.5412 35.9744 29.5195 35.9785 29.4968 35.9816ZM27.0159 35.9414C26.9943 35.9372 26.9726 35.9331 26.9509 35.929L27.0583 35.362C27.0789 35.3661 27.0986 35.3692 27.1192 35.3733L27.017 35.9414H27.0159ZM29.7271 35.9445L29.6259 35.3764C29.6455 35.3733 29.6662 35.3692 29.6858 35.3651L29.7922 35.9321C29.7705 35.9362 29.7488 35.9403 29.7261 35.9445H29.7271ZM26.7877 35.897C26.766 35.8928 26.7443 35.8877 26.7226 35.8825L26.8476 35.3196C26.8672 35.3237 26.8868 35.3279 26.9075 35.333L26.7877 35.897ZM29.9554 35.9001L29.8366 35.3361C29.8562 35.332 29.8769 35.3279 29.8965 35.3237L30.0204 35.8866C29.9987 35.8918 29.977 35.8959 29.9554 35.9001ZM26.5605 35.8453C26.5388 35.8401 26.5181 35.835 26.4964 35.8298L26.6369 35.27C26.6565 35.2752 26.6772 35.2804 26.6968 35.2855L26.5594 35.8453H26.5605ZM30.1826 35.8484L30.0462 35.2876C30.0659 35.2824 30.0865 35.2783 30.1062 35.2731L30.2466 35.8329C30.2249 35.8381 30.2043 35.8432 30.1826 35.8484ZM26.3353 35.7864C26.3136 35.7802 26.293 35.774 26.2713 35.7689L26.4293 35.2143C26.4489 35.2205 26.4685 35.2256 26.4892 35.2308L26.3353 35.7864ZM30.4077 35.7906L30.2549 35.2349C30.2745 35.2298 30.2941 35.2236 30.3137 35.2184L30.4718 35.773C30.4501 35.7792 30.4294 35.7854 30.4077 35.7906ZM26.1122 35.7214C26.0905 35.7152 26.0699 35.7079 26.0482 35.7018L26.2248 35.1523C26.2444 35.1585 26.264 35.1647 26.2826 35.1709L26.1122 35.7214ZM30.6308 35.7255L30.4604 35.174C30.48 35.1678 30.4997 35.1616 30.5193 35.1554L30.6949 35.7049C30.6732 35.7121 30.6525 35.7183 30.6308 35.7245V35.7255ZM25.8902 35.648C25.8695 35.6408 25.8478 35.6336 25.8272 35.6264L26.0203 35.0831C26.0399 35.0903 26.0585 35.0965 26.0781 35.1037L25.8902 35.6491V35.648ZM30.8529 35.6532L30.6659 35.1079C30.6856 35.1017 30.7052 35.0945 30.7238 35.0872L30.9149 35.6315C30.8942 35.6388 30.8735 35.646 30.8518 35.6532H30.8529ZM25.6712 35.5685C25.6506 35.5603 25.6299 35.553 25.6092 35.5448L25.8179 35.0067C25.8375 35.0139 25.8561 35.0211 25.8757 35.0284L25.6712 35.5675V35.5685ZM31.0718 35.5737L30.8684 35.0346C30.888 35.0273 30.9066 35.0201 30.9262 35.0129L31.1348 35.551C31.1142 35.5592 31.0935 35.5675 31.0729 35.5747L31.0718 35.5737ZM25.4533 35.4828C25.4326 35.4745 25.412 35.4652 25.3923 35.457L25.6185 34.9261C25.6371 34.9344 25.6568 34.9426 25.6753 34.9499L25.4543 35.4828H25.4533ZM31.2877 35.489L31.0677 34.9561C31.0863 34.9478 31.1049 34.9406 31.1245 34.9323L31.3497 35.4632C31.329 35.4714 31.3094 35.4807 31.2887 35.489H31.2877ZM25.2395 35.3898C25.2188 35.3805 25.1992 35.3712 25.1786 35.362L25.4202 34.8383C25.4388 34.8466 25.4574 34.8559 25.476 34.8641L25.2385 35.3898H25.2395ZM31.5005 35.3971L31.2639 34.8714C31.2825 34.8631 31.3011 34.8548 31.3197 34.8455L31.5604 35.3692C31.5407 35.3785 31.5201 35.3878 31.5005 35.396V35.3971ZM25.0288 35.2907C25.0092 35.2804 24.9885 35.2711 24.9689 35.2607L25.2271 34.7443C25.2457 34.7536 25.2643 34.7629 25.2829 34.7722L25.0288 35.2907ZM31.7101 35.299L31.4581 34.7794C31.4767 34.7712 31.4943 34.7619 31.5129 34.7526L31.77 35.269C31.7504 35.2793 31.7297 35.2886 31.7101 35.299ZM24.8202 35.1843C24.8005 35.174 24.7809 35.1637 24.7613 35.1533L25.035 34.6452C25.0536 34.6555 25.0711 34.6648 25.0897 34.6741L24.8202 35.1843ZM31.9177 35.1946L31.6502 34.6834C31.6688 34.6741 31.6864 34.6648 31.705 34.6545L31.9766 35.1626C31.957 35.1729 31.9373 35.1833 31.9177 35.1936V35.1946ZM24.6157 35.0728C24.596 35.0614 24.5774 35.0511 24.5578 35.0397L24.847 34.5409C24.8646 34.5512 24.8821 34.5615 24.9007 34.5718L24.6157 35.0738V35.0728ZM32.1212 35.0831L31.8382 34.5801C31.8558 34.5698 31.8733 34.5595 31.8919 34.5502L32.1801 35.05C32.1604 35.0614 32.1418 35.0717 32.1222 35.0831H32.1212ZM24.4153 34.955C24.3967 34.9437 24.3771 34.9323 24.3585 34.9199L24.6621 34.4293C24.6797 34.4396 24.6973 34.451 24.7148 34.4613L24.4153 34.954V34.955ZM32.3226 34.9654L32.0231 34.4727C32.0406 34.4624 32.0582 34.451 32.0757 34.4407L32.3784 34.9313C32.3598 34.9426 32.3412 34.954 32.3226 34.9654ZM24.218 34.8301C24.1994 34.8177 24.1808 34.8063 24.1623 34.7939L24.4814 34.3136C24.499 34.325 24.5155 34.3364 24.533 34.3477L24.218 34.8311V34.8301ZM32.5188 34.8424L32.2048 34.358C32.2224 34.3467 32.2389 34.3353 32.2565 34.324L32.5736 34.8053C32.555 34.8177 32.5364 34.829 32.5188 34.8414V34.8424ZM24.0249 34.6999C24.0063 34.6875 23.9887 34.6741 23.9701 34.6617L24.3038 34.1918C24.3203 34.2031 24.3368 34.2155 24.3544 34.2269L24.0249 34.7009V34.6999ZM32.712 34.7133L32.3835 34.2393C32.4001 34.2279 32.4176 34.2155 32.4341 34.2042L32.7657 34.6762C32.7481 34.6886 32.7295 34.7009 32.7109 34.7144L32.712 34.7133ZM23.8348 34.5636C23.8173 34.5502 23.7997 34.5367 23.7811 34.5233L24.1292 34.0637C24.1457 34.0761 24.1623 34.0885 24.1788 34.1009L23.8348 34.5636ZM32.901 34.5791L32.5591 34.1143C32.5756 34.1019 32.5922 34.0905 32.6076 34.0782L32.9536 34.5398C32.9361 34.5533 32.9185 34.5667 32.8999 34.5801L32.901 34.5791ZM23.651 34.4221C23.6334 34.4087 23.6159 34.3942 23.5994 34.3808L23.9609 33.9315C23.9774 33.9439 23.9929 33.9573 24.0094 33.9697L23.652 34.4221H23.651ZM33.0858 34.4376L32.7295 33.9842C32.746 33.9718 32.7615 33.9583 32.7781 33.946L33.1375 34.3973C33.1199 34.4107 33.1034 34.4252 33.0858 34.4386V34.4376ZM23.4703 34.2754C23.4537 34.261 23.4362 34.2465 23.4197 34.232L23.7946 33.7941C23.8101 33.8076 23.8256 33.821 23.841 33.8334L23.4703 34.2754ZM33.2666 34.292L32.8968 33.8489C32.9123 33.8354 32.9278 33.823 32.9433 33.8096L33.3172 34.2496C33.3007 34.2641 33.2831 34.2785 33.2666 34.292ZM23.2947 34.1226C23.2782 34.1081 23.2616 34.0926 23.2451 34.0782L23.6334 33.6516C23.6489 33.665 23.6634 33.6795 23.6789 33.6929L23.2947 34.1226ZM33.4432 34.1401L33.06 33.7094C33.0755 33.696 33.091 33.6826 33.1055 33.6681L33.4928 34.0957C33.4763 34.1102 33.4597 34.1257 33.4432 34.1401ZM23.1232 33.9656C23.1077 33.9501 23.0912 33.9356 23.0757 33.9201L23.4765 33.5049C23.4909 33.5194 23.5064 33.5339 23.5209 33.5473L23.1232 33.9656ZM33.6147 33.9831L33.2191 33.5638C33.2335 33.5493 33.249 33.5359 33.2635 33.5215L33.6632 33.9377C33.6477 33.9532 33.6312 33.9687 33.6157 33.9831H33.6147ZM22.957 33.8024C22.9415 33.7869 22.926 33.7704 22.9105 33.7549L23.3236 33.3521C23.3381 33.3665 23.3525 33.381 23.367 33.3955L22.957 33.8014V33.8024ZM33.782 33.8199L33.373 33.413C33.3874 33.3986 33.4019 33.3841 33.4163 33.3686L33.8284 33.7724C33.813 33.7879 33.7975 33.8034 33.782 33.8189V33.8199ZM22.7958 33.6351C22.7803 33.6185 22.7659 33.6031 22.7514 33.5865L23.1769 33.1972C23.1904 33.2126 23.2048 33.2271 23.2183 33.2426L22.7958 33.6361V33.6351ZM33.9431 33.6537L33.5227 33.2581C33.5362 33.2436 33.5506 33.2281 33.564 33.2137L33.9885 33.6051C33.973 33.6216 33.9586 33.6382 33.9431 33.6537ZM22.6399 33.4626C22.6254 33.4461 22.611 33.4295 22.5965 33.412L23.0334 33.036C23.0468 33.0515 23.0602 33.067 23.0737 33.0825L22.6399 33.4626ZM34.1001 33.4812L33.6673 33.1001C33.6808 33.0846 33.6942 33.0691 33.7076 33.0536L34.1435 33.4316C34.129 33.4481 34.1145 33.4647 34.1001 33.4812ZM22.4891 33.2849C22.4746 33.2674 22.4612 33.2509 22.4467 33.2333L22.895 32.8708C22.9074 32.8863 22.9208 32.9028 22.9342 32.9183L22.4891 33.2849ZM34.2509 33.3046L33.8078 32.9359C33.8212 32.9204 33.8336 32.9049 33.847 32.8883L34.2942 33.2529C34.2798 33.2705 34.2664 33.287 34.2519 33.3046H34.2509ZM22.3445 33.1032C22.3311 33.0856 22.3176 33.0681 22.3042 33.0505L22.7628 32.7014C22.7752 32.7179 22.7876 32.7345 22.8 32.7499L22.3445 33.1032ZM34.3975 33.1238L33.9431 32.7685C33.9555 32.752 33.9679 32.7365 33.9803 32.72L34.4378 33.0712C34.4244 33.0887 34.411 33.1063 34.3965 33.1238H34.3975ZM22.2051 32.9173C22.1916 32.8997 22.1792 32.8811 22.1658 32.8636L22.6357 32.5279C22.6471 32.5444 22.6595 32.5609 22.6719 32.5775L22.2051 32.9173ZM34.538 32.9379L34.0722 32.5971C34.0846 32.5806 34.0959 32.564 34.1083 32.5475L34.5762 32.8842C34.5628 32.9018 34.5504 32.9204 34.537 32.9379H34.538ZM22.0708 32.7283C22.0584 32.7097 22.046 32.6921 22.0336 32.6735L22.5128 32.3523C22.5242 32.3699 22.5356 32.3864 22.5469 32.4029L22.0708 32.7283ZM34.6723 32.7479L34.1961 32.4215C34.2075 32.4039 34.2189 32.3874 34.2312 32.3699L34.7094 32.6921C34.697 32.7107 34.6847 32.7293 34.6723 32.7468V32.7479ZM21.9427 32.5341C21.9303 32.5155 21.919 32.4969 21.9076 32.4783L22.3961 32.1726C22.4065 32.1902 22.4178 32.2077 22.4292 32.2242L21.9427 32.5341ZM34.8014 32.5537L34.3159 32.2428C34.3273 32.2253 34.3376 32.2077 34.349 32.1902L34.8365 32.4979C34.8251 32.5165 34.8127 32.5351 34.8014 32.5537ZM21.8208 32.3358C21.8095 32.3172 21.7981 32.2976 21.7868 32.279L22.2846 31.9877C22.2949 32.0053 22.3052 32.0228 22.3156 32.0404L21.8198 32.3358H21.8208ZM34.9243 32.3564L34.4295 32.059C34.4399 32.0414 34.4502 32.0239 34.4605 32.0063L34.9573 32.2986C34.946 32.3182 34.9346 32.3368 34.9232 32.3564H34.9243ZM21.7052 32.1354C21.6948 32.1158 21.6835 32.0962 21.6732 32.0776L22.1803 31.8018C22.1896 31.8194 22.1999 31.838 22.2102 31.8555L21.7062 32.1354H21.7052ZM35.041 32.154L34.538 31.872C34.5483 31.8545 34.5576 31.8359 34.5679 31.8183L35.074 32.0951C35.0637 32.1148 35.0523 32.1344 35.042 32.153L35.041 32.154ZM21.5947 31.9309C21.5843 31.9113 21.574 31.8917 21.5647 31.872L22.0791 31.6118C22.0883 31.6304 22.0976 31.6479 22.1069 31.6665L21.5947 31.9319V31.9309ZM35.1525 31.9485L34.6413 31.682C34.6506 31.6644 34.6599 31.6459 34.6692 31.6273L35.1835 31.8896C35.1732 31.9092 35.1629 31.9288 35.1536 31.9495L35.1525 31.9485ZM21.4914 31.7233C21.4821 31.7037 21.4728 31.683 21.4635 31.6634L21.9861 31.4186C21.9944 31.4372 22.0037 31.4558 22.0119 31.4744L21.4914 31.7233ZM35.2568 31.7398L34.7373 31.4899C34.7466 31.4713 34.7549 31.4527 34.7642 31.4341L35.2858 31.6799C35.2765 31.6996 35.2672 31.7202 35.2568 31.7398ZM21.3943 31.5116C21.385 31.492 21.3767 31.4713 21.3674 31.4507L21.8973 31.2224C21.9055 31.241 21.9138 31.2596 21.9221 31.2782L21.3943 31.5116ZM35.355 31.5281L34.8282 31.2937C34.8365 31.2751 34.8447 31.2554 34.853 31.2369L35.3818 31.4661C35.3735 31.4868 35.3643 31.5064 35.355 31.5271V31.5281ZM21.3044 31.2988C21.2962 31.2782 21.2879 31.2575 21.2796 31.2369L21.8157 31.0251C21.8229 31.0437 21.8312 31.0633 21.8384 31.0819L21.3034 31.2988H21.3044ZM35.4458 31.3133L34.9119 31.0954C34.9201 31.0768 34.9274 31.0571 34.9346 31.0386L35.4706 31.2513C35.4624 31.272 35.4541 31.2926 35.4458 31.3133ZM21.2208 31.0819C21.2135 31.0613 21.2053 31.0406 21.1981 31.0189L21.7403 30.8237C21.7475 30.8434 21.7547 30.8619 21.7609 30.8816L21.2197 31.0819H21.2208ZM35.5316 31.0954L34.9914 30.894C34.9986 30.8743 35.0059 30.8557 35.0131 30.8361L35.5553 31.0324C35.5481 31.053 35.5398 31.0747 35.5326 31.0954H35.5316ZM21.1423 30.8619C21.1351 30.8413 21.1278 30.8196 21.1216 30.7989L21.6701 30.6203C21.6763 30.6399 21.6824 30.6595 21.6897 30.6791L21.1433 30.863L21.1423 30.8619ZM35.609 30.8754L35.0627 30.6905C35.0689 30.6709 35.0761 30.6512 35.0823 30.6327L35.6307 30.8124C35.6235 30.8341 35.6163 30.8547 35.609 30.8764V30.8754ZM21.072 30.6409C21.0659 30.6203 21.0597 30.5986 21.0535 30.5769L21.6071 30.4158C21.6132 30.4354 21.6184 30.455 21.6246 30.4746L21.072 30.6409ZM35.6803 30.6533L35.1288 30.486C35.135 30.4664 35.1401 30.4467 35.1463 30.4271L35.6999 30.5893C35.6937 30.611 35.6875 30.6316 35.6813 30.6533H35.6803ZM21.008 30.4168C21.0018 30.3951 20.9967 30.3744 20.9915 30.3528L21.5502 30.2082C21.5554 30.2278 21.5606 30.2474 21.5657 30.2681L21.009 30.4178L21.008 30.4168ZM35.7443 30.4302L35.1876 30.2794C35.1928 30.2598 35.198 30.2402 35.2031 30.2206L35.7609 30.3662C35.7557 30.3879 35.7495 30.4096 35.7433 30.4302H35.7443ZM20.9512 30.1906C20.946 30.1689 20.9409 30.1472 20.9357 30.1255L21.4986 29.9975C21.5027 30.0171 21.5079 30.0377 21.512 30.0574L20.9502 30.1896L20.9512 30.1906ZM35.8022 30.204L35.2403 30.0718C35.2444 30.0512 35.2496 30.0316 35.2548 30.0109L35.8166 30.14C35.8115 30.1617 35.8073 30.1823 35.8022 30.204ZM20.9016 29.9634C20.8975 29.9417 20.8934 29.92 20.8892 29.8983L21.4552 29.7878C21.4594 29.8074 21.4635 29.8281 21.4676 29.8477L20.9027 29.9624L20.9016 29.9634ZM35.8517 29.9778L35.2868 29.8611C35.2909 29.8415 35.2951 29.8209 35.2992 29.8012L35.8652 29.9117C35.861 29.9334 35.8569 29.9562 35.8517 29.9778ZM20.8583 29.7351C20.8541 29.7134 20.851 29.6918 20.8469 29.6701L21.416 29.5771C21.4191 29.5978 21.4222 29.6174 21.4263 29.638L20.8583 29.7362V29.7351ZM35.8962 29.7486L35.3281 29.6504C35.3322 29.6298 35.3353 29.6102 35.3384 29.5895L35.9075 29.6835C35.9034 29.7052 35.9003 29.7269 35.8962 29.7486ZM20.8221 29.5048C20.819 29.4831 20.8159 29.4614 20.8128 29.4387L21.385 29.3633C21.3881 29.384 21.3902 29.4036 21.3933 29.4243L20.8221 29.5048ZM35.9323 29.5182L35.3612 29.4366C35.3643 29.416 35.3663 29.3964 35.3694 29.3757L35.9416 29.4521C35.9385 29.4738 35.9354 29.4966 35.9323 29.5182ZM20.7932 29.2745C20.7911 29.2528 20.788 29.2301 20.786 29.2084L21.3602 29.1506C21.3623 29.1712 21.3643 29.1919 21.3664 29.2115L20.7932 29.2745ZM35.9612 29.2879L35.388 29.2239C35.3901 29.2032 35.3921 29.1836 35.3942 29.1629L35.9674 29.2229C35.9654 29.2445 35.9633 29.2673 35.9602 29.289L35.9612 29.2879ZM20.7715 29.0421C20.7694 29.0204 20.7684 28.9977 20.7663 28.976L21.3416 28.9357C21.3426 28.9564 21.3447 28.977 21.3457 28.9967L20.7705 29.0421H20.7715ZM35.9839 29.0566L35.4087 29.0101C35.4107 28.9894 35.4118 28.9698 35.4138 28.9492L35.9891 28.9905C35.987 29.0122 35.986 29.0349 35.9839 29.0566ZM20.757 28.8108C20.756 28.7891 20.755 28.7663 20.7539 28.7447L21.3303 28.7219C21.3303 28.7426 21.3323 28.7632 21.3334 28.7829L20.757 28.8108ZM35.9984 28.8242L35.4221 28.7942C35.4231 28.7736 35.4242 28.754 35.4252 28.7333L36.0015 28.757C36.0015 28.7798 35.9994 28.8015 35.9984 28.8242ZM20.7488 28.5784C20.7488 28.5567 20.7488 28.534 20.7488 28.5123L21.3251 28.5071C21.3251 28.5278 21.3251 28.5474 21.3251 28.568L20.7488 28.5784ZM36.0067 28.5918L35.4304 28.5794C35.4304 28.5587 35.4304 28.5381 35.4304 28.5185V28.5081L36.0077 28.5154V28.5257C36.0077 28.5474 36.0077 28.5701 36.0067 28.5918ZM20.7477 28.345V28.3367C20.7477 28.3191 20.7477 28.2985 20.7488 28.2778L21.3251 28.2892C21.3251 28.3078 21.3251 28.3264 21.3251 28.346L20.7477 28.3439V28.345ZM35.4314 28.3542C35.4314 28.3336 35.4314 28.3129 35.4314 28.2923L36.0077 28.2809C36.0077 28.3026 36.0077 28.3253 36.0077 28.347L35.4314 28.3532V28.3542ZM21.3303 28.1363L20.7539 28.1126C20.7539 28.0909 20.756 28.0682 20.757 28.0465L21.3334 28.0754C21.3323 28.096 21.3313 28.1167 21.3303 28.1374V28.1363ZM35.4262 28.1384C35.4262 28.1177 35.4242 28.0981 35.4231 28.0775L35.9994 28.0485C36.0005 28.0713 36.0015 28.0929 36.0025 28.1157L35.4262 28.1384ZM21.3426 27.9215L20.7674 27.8802C20.7694 27.8585 20.7705 27.8358 20.7725 27.8141L21.3478 27.8606C21.3457 27.8812 21.3447 27.9019 21.3426 27.9215ZM35.4138 27.9246C35.4128 27.9039 35.4107 27.8833 35.4097 27.8626L35.985 27.8172C35.987 27.8389 35.9881 27.8616 35.9901 27.8833L35.4149 27.9246H35.4138ZM21.3612 27.7077L20.787 27.6488C20.7891 27.6271 20.7911 27.6044 20.7942 27.5827L21.3674 27.6457C21.3654 27.6664 21.3633 27.687 21.3612 27.7067V27.7077ZM35.3952 27.7098C35.3932 27.6891 35.3911 27.6695 35.389 27.6488L35.9623 27.5858C35.9643 27.6075 35.9674 27.6302 35.9695 27.6519L35.3952 27.7098ZM21.386 27.4939L20.8138 27.4185C20.8169 27.3968 20.82 27.3741 20.8231 27.3524L21.3943 27.433C21.3912 27.4536 21.3881 27.4733 21.386 27.4939ZM35.3704 27.496C35.3674 27.4763 35.3653 27.4557 35.3622 27.4361L35.9333 27.3545C35.9364 27.3762 35.9395 27.3989 35.9426 27.4206L35.3704 27.496ZM21.418 27.2811L20.849 27.1872C20.8531 27.1655 20.8562 27.1438 20.8603 27.1221L21.4284 27.2202C21.4253 27.2409 21.4211 27.2605 21.418 27.2811ZM35.3384 27.2832C35.3353 27.2626 35.3322 27.2429 35.3281 27.2223L35.8962 27.1242C35.9003 27.1458 35.9034 27.1675 35.9075 27.1903L35.3384 27.2832ZM21.4563 27.0694L20.8903 26.9589C20.8944 26.9372 20.8985 26.9155 20.9037 26.8938L21.4687 27.0095C21.4645 27.0291 21.4604 27.0498 21.4563 27.0694ZM35.3013 27.0725C35.2971 27.0529 35.293 27.0322 35.2889 27.0126L35.8538 26.8969C35.8579 26.9186 35.8621 26.9403 35.8672 26.962L35.3013 27.0725ZM21.5007 26.8587L20.9388 26.7307C20.944 26.709 20.9491 26.6873 20.9543 26.6656L21.5151 26.7988C21.51 26.8184 21.5058 26.8391 21.5017 26.8587H21.5007ZM35.2568 26.8618C35.2527 26.8422 35.2475 26.8215 35.2424 26.8019L35.8042 26.6687C35.8094 26.6904 35.8146 26.7121 35.8187 26.7327L35.2568 26.8608V26.8618ZM21.5513 26.6501L20.9925 26.5045C20.9977 26.4828 21.0039 26.4611 21.009 26.4404L21.5657 26.5912C21.5606 26.6108 21.5554 26.6305 21.5502 26.6501H21.5513ZM35.2062 26.6532C35.2011 26.6336 35.1959 26.6129 35.1907 26.5933L35.7474 26.4435C35.7536 26.4642 35.7588 26.4859 35.764 26.5076L35.2062 26.6542V26.6532ZM21.6091 26.4425L21.0555 26.2803C21.0617 26.2587 21.0679 26.238 21.0741 26.2163L21.6256 26.3836C21.6194 26.4032 21.6143 26.4229 21.6081 26.4425H21.6091ZM35.1484 26.4456C35.1422 26.426 35.137 26.4063 35.1308 26.3867L35.6834 26.2194C35.6896 26.2401 35.6958 26.2617 35.702 26.2824L35.1484 26.4456ZM21.6732 26.237L21.1247 26.0572C21.132 26.0356 21.1381 26.0149 21.1454 25.9932L21.6917 26.1781C21.6855 26.1977 21.6783 26.2173 21.6721 26.237H21.6732ZM35.0844 26.2401C35.0782 26.2204 35.0709 26.2008 35.0647 26.1812L35.6111 25.9973C35.6183 26.018 35.6256 26.0397 35.6318 26.0603L35.0833 26.2401H35.0844ZM21.7434 26.0335L21.2012 25.8373C21.2084 25.8166 21.2166 25.7959 21.2239 25.7743L21.7651 25.9746C21.7578 25.9942 21.7506 26.0128 21.7434 26.0325V26.0335ZM35.0152 26.0366C35.0079 26.017 35.0017 25.9984 34.9945 25.9788L35.5357 25.7774C35.544 25.798 35.5512 25.8187 35.5584 25.8404L35.0162 26.0356L35.0152 26.0366ZM21.8198 25.8311L21.2838 25.6183C21.292 25.5976 21.3003 25.577 21.3086 25.5563L21.8425 25.7732C21.8353 25.7928 21.827 25.8114 21.8198 25.83V25.8311ZM34.9387 25.8352C34.9315 25.8166 34.9232 25.797 34.916 25.7784L35.45 25.5615C35.4582 25.5822 35.4665 25.6028 35.4748 25.6235L34.9387 25.8362V25.8352ZM21.9024 25.6317L21.3726 25.4024C21.3819 25.3818 21.3902 25.3611 21.3995 25.3415L21.9272 25.5749C21.919 25.5935 21.9107 25.6131 21.9024 25.6317ZM34.8561 25.6379C34.8478 25.6193 34.8396 25.6007 34.8313 25.5822L35.3591 25.3487C35.3684 25.3694 35.3766 25.389 35.3859 25.4097L34.8561 25.6379ZM21.9913 25.4355L21.4687 25.1907C21.4779 25.1701 21.4872 25.1504 21.4976 25.1308L22.0171 25.3808C22.0078 25.3993 21.9995 25.4179 21.9902 25.4365L21.9913 25.4355ZM34.7683 25.4427C34.7601 25.4241 34.7508 25.4055 34.7425 25.3869L35.263 25.138C35.2723 25.1577 35.2816 25.1773 35.2909 25.1979L34.7683 25.4427ZM22.0852 25.2424L21.5709 24.981C21.5812 24.9614 21.5916 24.9408 21.6019 24.9211L22.1131 25.1876C22.1038 25.2062 22.0945 25.2238 22.0852 25.2424ZM34.6743 25.2496C34.665 25.231 34.6557 25.2134 34.6464 25.1948L35.1587 24.9294C35.169 24.949 35.1794 24.9687 35.1887 24.9883L34.6743 25.2485V25.2496ZM22.1865 25.0513L21.6804 24.7745C21.6907 24.7549 21.7021 24.7352 21.7124 24.7166L22.2164 24.9976C22.2061 25.0151 22.1968 25.0337 22.1865 25.0513ZM34.5752 25.0595C34.5659 25.042 34.5556 25.0234 34.5452 25.0058L35.0492 24.7249C35.0596 24.7445 35.0709 24.7631 35.0813 24.7827L34.5752 25.0585V25.0595ZM22.2928 24.8643L21.7961 24.572C21.8074 24.5535 21.8188 24.5338 21.8301 24.5152L22.3249 24.8117C22.3145 24.8292 22.3042 24.8468 22.2939 24.8643H22.2928ZM34.4688 24.8726C34.4585 24.855 34.4481 24.8375 34.4378 24.8199L34.9325 24.5235C34.9439 24.5421 34.9553 24.5617 34.9666 24.5803L34.4688 24.8716V24.8726ZM22.4044 24.6795L21.9159 24.3717C21.9272 24.3531 21.9396 24.3345 21.952 24.3159L22.4374 24.6278C22.4261 24.6454 22.4158 24.6619 22.4044 24.6795ZM34.3583 24.6898C34.3469 24.6722 34.3366 24.6547 34.3252 24.6382L34.8107 24.3273C34.8231 24.3459 34.8344 24.3645 34.8458 24.383L34.3572 24.6898H34.3583ZM22.5221 24.4987L22.0439 24.1765C22.0563 24.1579 22.0687 24.1393 22.0811 24.1207L22.5562 24.4471C22.5449 24.4636 22.5335 24.4812 22.5221 24.4977V24.4987ZM34.2405 24.509C34.2292 24.4915 34.2178 24.475 34.2065 24.4584L34.6826 24.1331C34.695 24.1517 34.7074 24.1692 34.7198 24.1878L34.2405 24.509ZM22.645 24.3221L22.1761 23.9854C22.1896 23.9678 22.202 23.9493 22.2154 23.9317L22.6812 24.2725C22.6688 24.2891 22.6574 24.3056 22.645 24.3221ZM34.1187 24.3324C34.1063 24.3159 34.0949 24.2994 34.0825 24.2829L34.5494 23.9431C34.5618 23.9606 34.5752 23.9792 34.5876 23.9968L34.1187 24.3324ZM22.7731 24.1496L22.3156 23.7995C22.329 23.7819 22.3424 23.7644 22.3558 23.7468L22.8113 24.1011C22.7989 24.1176 22.7865 24.1331 22.7731 24.1496ZM33.9906 24.1589C33.9782 24.1424 33.9658 24.1269 33.9534 24.1104L34.4089 23.7561C34.4223 23.7737 34.4357 23.7912 34.4492 23.8088L33.9896 24.1579L33.9906 24.1589ZM22.9063 23.9802L22.4591 23.6157C22.4736 23.5981 22.487 23.5816 22.5015 23.564L22.9456 23.9327C22.9322 23.9482 22.9198 23.9648 22.9063 23.9802ZM33.8584 23.9906C33.846 23.9751 33.8326 23.9586 33.8191 23.9431L34.2643 23.5754C34.2788 23.5929 34.2922 23.6095 34.3066 23.627L33.8584 23.9906ZM23.0447 23.816L22.6089 23.438C22.6233 23.4215 22.6378 23.405 22.6523 23.3884L23.085 23.7695C23.0716 23.785 23.0582 23.8005 23.0447 23.816ZM33.72 23.8253C33.7066 23.8098 33.6931 23.7943 33.6797 23.7788L34.1125 23.3977C34.1269 23.4143 34.1414 23.4308 34.1559 23.4483L33.719 23.8253H33.72ZM23.1883 23.6549L22.7638 23.2645C22.7793 23.248 22.7938 23.2314 22.8093 23.216L23.2296 23.6105C23.2162 23.625 23.2017 23.6404 23.1883 23.6559V23.6549ZM33.5775 23.6652C33.564 23.6497 33.5496 23.6353 33.5362 23.6198L33.9575 23.2263C33.973 23.2428 33.9875 23.2593 34.003 23.2748L33.5775 23.6652ZM23.337 23.4989L22.9249 23.0951C22.9404 23.0796 22.9559 23.0631 22.9714 23.0476L23.3804 23.4545C23.3659 23.469 23.3515 23.4835 23.337 23.4979V23.4989ZM33.4287 23.5093C33.4143 23.4948 33.3998 23.4804 33.3854 23.4659L33.7944 23.06C33.8099 23.0755 33.8253 23.092 33.8408 23.1075L33.4277 23.5103L33.4287 23.5093ZM23.4899 23.3471L23.0902 22.9309C23.1057 22.9154 23.1222 22.8999 23.1387 22.8855L23.5353 23.3048C23.5209 23.3192 23.5054 23.3327 23.4909 23.3471H23.4899ZM33.2769 23.3575C33.2625 23.343 33.247 23.3285 33.2325 23.3151L33.6291 22.8968C33.6456 22.9123 33.6611 22.9278 33.6777 22.9433L33.2769 23.3585V23.3575ZM23.6469 23.2005L23.2596 22.7729C23.2761 22.7584 23.2926 22.7429 23.3091 22.7285L23.6923 23.1591C23.6768 23.1726 23.6613 23.186 23.6469 23.2005ZM33.1199 23.2098C33.1044 23.1963 33.09 23.1819 33.0745 23.1684L33.4587 22.7378C33.4752 22.7522 33.4917 22.7677 33.5083 22.7822L33.1199 23.2087V23.2098ZM23.809 23.059L23.4351 22.62C23.4517 22.6056 23.4692 22.5911 23.4858 22.5777L23.8555 23.0197C23.84 23.0331 23.8245 23.0455 23.809 23.059ZM32.9578 23.0672C32.9423 23.0538 32.9268 23.0404 32.9113 23.028L33.2821 22.5859C33.2996 22.6004 33.3162 22.6149 33.3327 22.6293L32.9578 23.0672ZM23.9743 22.9226L23.6138 22.4723C23.6314 22.4589 23.6479 22.4444 23.6655 22.431L24.0218 22.8844C24.0053 22.8968 23.9898 22.9102 23.9732 22.9226H23.9743ZM32.7925 22.9299C32.776 22.9175 32.7605 22.904 32.744 22.8916L33.1013 22.4393C33.1189 22.4527 33.1365 22.4672 33.153 22.4806L32.7915 22.9299H32.7925ZM24.1447 22.7904L23.7977 22.3298C23.8152 22.3164 23.8328 22.3029 23.8514 22.2905L24.1943 22.7543C24.1777 22.7667 24.1612 22.7791 24.1447 22.7904ZM32.6231 22.7987C32.6066 22.7863 32.5901 22.7739 32.5736 22.7615L32.9175 22.2978C32.9351 22.3112 32.9526 22.3246 32.9702 22.337L32.6231 22.7977V22.7987ZM24.3182 22.6644L23.9856 22.1924C24.0032 22.18 24.0218 22.1666 24.0404 22.1542L24.3688 22.6283C24.3523 22.6396 24.3347 22.652 24.3182 22.6634V22.6644ZM32.4486 22.6706C32.4321 22.6593 32.4145 22.6469 32.398 22.6355L32.7275 22.1614C32.746 22.1738 32.7636 22.1873 32.7822 22.1997L32.4496 22.6706H32.4486ZM24.4948 22.5426L24.1767 22.0613C24.1953 22.0489 24.2139 22.0375 24.2325 22.0251L24.5465 22.5095C24.5289 22.5209 24.5124 22.5322 24.4948 22.5436V22.5426ZM32.2709 22.5487C32.2544 22.5374 32.2369 22.526 32.2193 22.5147L32.5343 22.0313C32.5529 22.0437 32.5715 22.0561 32.5901 22.0685L32.2709 22.5487ZM24.6766 22.4269L24.373 21.9363C24.3915 21.9249 24.4112 21.9125 24.4298 21.9012L24.7282 22.3949C24.7107 22.4052 24.6931 22.4165 24.6756 22.4269H24.6766ZM32.0892 22.4331C32.0716 22.4227 32.0541 22.4114 32.0365 22.4011L32.336 21.9084C32.3546 21.9198 32.3742 21.9322 32.3928 21.9435L32.0881 22.4331H32.0892ZM24.8604 22.3174L24.5723 21.8175C24.5919 21.8061 24.6105 21.7958 24.6301 21.7845L24.9141 22.2864C24.8966 22.2967 24.879 22.306 24.8604 22.3164V22.3174ZM31.9053 22.3226C31.8878 22.3122 31.8692 22.3019 31.8516 22.2916L32.1356 21.7896C32.1553 21.801 32.1739 21.8113 32.1935 21.8227L31.9053 22.3215V22.3226ZM25.0484 22.2131L24.7758 21.7049C24.7954 21.6946 24.815 21.6843 24.8346 21.6739L25.1032 22.1842C25.0846 22.1935 25.067 22.2028 25.0494 22.2131H25.0484ZM31.7163 22.2172C31.6988 22.2079 31.6802 22.1976 31.6616 22.1883L31.9301 21.6781C31.9497 21.6884 31.9694 21.6987 31.989 21.7091L31.7153 22.2172H31.7163ZM25.2385 22.1139L24.9813 21.5975C25.0009 21.5872 25.0205 21.5779 25.0402 21.5686L25.2932 22.0871C25.2746 22.0964 25.256 22.1046 25.2385 22.1139ZM31.5253 22.1181C31.5067 22.1088 31.4881 22.0995 31.4705 22.0912L31.7236 21.5727C31.7432 21.582 31.7638 21.5924 31.7835 21.6027L31.5253 22.1191V22.1181ZM25.4316 22.022L25.1899 21.4984C25.2095 21.4891 25.2302 21.4798 25.2498 21.4705L25.4863 21.9962C25.4677 22.0045 25.4492 22.0127 25.4306 22.022H25.4316ZM31.3311 22.0241C31.3125 22.0158 31.2939 22.0065 31.2753 21.9983L31.5118 21.4725C31.5325 21.4818 31.5521 21.4911 31.5728 21.5004L31.3311 22.0241ZM25.6278 21.9353L25.4027 21.4044C25.4233 21.3961 25.443 21.3868 25.4636 21.3786L25.6836 21.9115C25.665 21.9198 25.6464 21.927 25.6268 21.9353H25.6278ZM31.1338 21.9373C31.1152 21.9291 31.0956 21.9218 31.077 21.9136L31.298 21.3806C31.3187 21.3889 31.3393 21.3982 31.36 21.4064L31.1348 21.9373H31.1338ZM25.8261 21.8547L25.6175 21.3166C25.6382 21.3083 25.6588 21.3011 25.6795 21.2928L25.884 21.832C25.8643 21.8392 25.8458 21.8464 25.8261 21.8537V21.8547ZM30.9345 21.8557C30.9149 21.8485 30.8963 21.8413 30.8766 21.834L31.0811 21.2949C31.1018 21.3032 31.1224 21.3104 31.1431 21.3187L30.9345 21.8568V21.8557ZM26.0286 21.7793L25.8365 21.235C25.8571 21.2278 25.8778 21.2205 25.8995 21.2133L26.0874 21.7586C26.0678 21.7648 26.0492 21.7721 26.0296 21.7793H26.0286ZM30.731 21.7803C30.7114 21.7731 30.6928 21.7669 30.6732 21.7597L30.8601 21.2143C30.8818 21.2216 30.9025 21.2288 30.9231 21.236L30.73 21.7793L30.731 21.7803ZM26.232 21.7111L26.0565 21.1617C26.0771 21.1544 26.0988 21.1482 26.1195 21.142L26.2899 21.6925C26.2702 21.6987 26.2506 21.7049 26.231 21.7111H26.232ZM30.5265 21.7122C30.5069 21.706 30.4873 21.6998 30.4676 21.6936L30.6381 21.1431C30.6597 21.1493 30.6804 21.1565 30.7021 21.1627L30.5265 21.7122ZM26.4376 21.6492L26.2795 21.0945C26.3012 21.0883 26.3219 21.0821 26.3436 21.077L26.4975 21.6326C26.4778 21.6378 26.4582 21.644 26.4386 21.6492H26.4376ZM30.321 21.6502C30.3014 21.645 30.2817 21.6388 30.2621 21.6337L30.416 21.078C30.4377 21.0842 30.4583 21.0904 30.48 21.0966L30.321 21.6512V21.6502ZM26.6452 21.5934L26.5037 21.0336C26.5254 21.0284 26.547 21.0233 26.5687 21.0181L26.7051 21.5789C26.6854 21.5841 26.6658 21.5882 26.6452 21.5934ZM30.1134 21.5934C30.0938 21.5882 30.0741 21.5831 30.0535 21.5789L30.1908 21.0181C30.2125 21.0233 30.2332 21.0284 30.2549 21.0346L30.1134 21.5934ZM26.8548 21.5438L26.7309 20.9809C26.7526 20.9758 26.7743 20.9716 26.796 20.9675L26.9147 21.5314C26.8951 21.5356 26.8744 21.5397 26.8548 21.5448V21.5438ZM29.9037 21.5438C29.8841 21.5397 29.8634 21.5355 29.8438 21.5304L29.9636 20.9665C29.9853 20.9706 30.007 20.9758 30.0287 20.9809L29.9048 21.5438H29.9037ZM27.0655 21.5004L26.9591 20.9334C26.9808 20.9293 27.0025 20.9252 27.0242 20.921L27.1254 21.4891C27.1048 21.4922 27.0851 21.4963 27.0645 21.5004H27.0655ZM29.693 21.5015C29.6734 21.4973 29.6527 21.4942 29.6321 21.4901L29.7343 20.9221C29.756 20.9262 29.7777 20.9303 29.7994 20.9344L29.692 21.5015H29.693ZM27.2772 21.4643L27.1884 20.8942C27.2101 20.8911 27.2318 20.8869 27.2545 20.8838L27.3392 21.454C27.3186 21.4571 27.2989 21.4602 27.2783 21.4633L27.2772 21.4643ZM29.4813 21.4643C29.4606 21.4612 29.441 21.4581 29.4204 21.455L29.505 20.8849C29.5267 20.888 29.5495 20.8911 29.5711 20.8952L29.4813 21.4653V21.4643ZM27.49 21.4343L27.4177 20.8622C27.4394 20.8591 27.4611 20.857 27.4838 20.8539L27.5509 21.4271C27.5303 21.4292 27.5107 21.4323 27.49 21.4343ZM29.2685 21.4343C29.2479 21.4323 29.2283 21.4292 29.2076 21.4271L29.2747 20.8539C29.2964 20.856 29.3191 20.8591 29.3408 20.8622L29.2696 21.4343H29.2685ZM27.7038 21.4106L27.6491 20.8363C27.6708 20.8343 27.6935 20.8322 27.7152 20.8301L27.7647 21.4044C27.7441 21.4064 27.7234 21.4075 27.7038 21.4095V21.4106ZM29.0547 21.4106C29.0341 21.4085 29.0134 21.4064 28.9928 21.4054L29.0423 20.8312C29.064 20.8332 29.0868 20.8353 29.1084 20.8374L29.0537 21.4116L29.0547 21.4106ZM27.9186 21.393L27.8815 20.8177C27.9031 20.8167 27.9259 20.8146 27.9476 20.8136L27.9796 21.3899C27.9589 21.391 27.9383 21.392 27.9186 21.3941V21.393ZM28.8399 21.3941C28.8193 21.393 28.7986 21.392 28.7779 21.3899L28.81 20.8136C28.8316 20.8146 28.8544 20.8157 28.8761 20.8177L28.8399 21.393V21.3941ZM28.1335 21.3827L28.1138 20.8064C28.1355 20.8064 28.1582 20.8053 28.1799 20.8043L28.1944 21.3806C28.1737 21.3806 28.1531 21.3817 28.1324 21.3827H28.1335ZM28.6251 21.3827C28.6044 21.3827 28.5838 21.3817 28.5631 21.3806L28.5786 20.8043C28.6003 20.8043 28.623 20.8053 28.6447 20.8064L28.6251 21.3827ZM28.3483 21.3786L28.3462 20.8022C28.3679 20.8022 28.3906 20.8022 28.4123 20.8022L28.4092 21.3786H28.3483Z" fill="#DBDBDB"/>
<path d="M33.1137 28.4328C33.1137 31.0479 30.9934 33.1683 28.3783 33.1683C25.7631 33.1683 23.6428 31.0479 23.6428 28.4328C23.6428 25.8177 25.7631 23.6973 28.3783 23.6973C30.9934 23.6973 33.1137 25.8177 33.1137 28.4328Z" fill="#DBDBDB"/>
<path style="mix-blend-mode:multiply" d="M32.5808 31.0479C32.1222 31.9155 29.7632 31.5674 27.3124 30.2712C24.8615 28.975 23.2461 27.2213 23.7047 26.3547C24.1633 25.4872 26.5222 25.8352 28.9731 27.1314C31.424 28.4276 33.0394 30.1814 32.5808 31.0479Z" fill="url(#paint0_radial_81_12437)"/>
<path d="M26.984 27.6654L29.0155 27.1945L24.2645 25.4593L19.5135 23.7231L26.984 27.6654Z" fill="#E01616"/>
<path d="M26.984 27.6654L27.741 29.6092L23.6273 26.6667L19.5135 23.7231L26.984 27.6654Z" fill="#B70000"/>
<path d="M29.7726 29.1382L27.741 29.6092L32.492 31.3453L37.244 33.0805L29.7726 29.1382Z" fill="#1645BA"/>
<path d="M29.7726 29.1381L29.0155 27.1943L33.1292 30.1379L37.244 33.0804L29.7726 29.1381Z" fill="#1D59F2"/>
<path d="M29.0548 27.215C29.8759 27.6488 30.2559 28.5412 29.9037 29.2074C29.5516 29.8746 28.6003 30.0636 27.7792 29.6298C26.9581 29.196 26.5781 28.3047 26.9292 27.6375C27.2814 26.9703 28.2326 26.7813 29.0537 27.215H29.0548Z" fill="url(#paint1_linear_81_12437)"/>
<path d="M28.6912 29.4843C28.4444 29.4843 28.1903 29.4193 27.9569 29.2953C27.6367 29.1259 27.3899 28.8698 27.2639 28.5734C27.1492 28.3038 27.1492 28.0342 27.266 27.8142C27.4157 27.5302 27.7442 27.3608 28.1439 27.3608C28.3907 27.3608 28.6448 27.4259 28.8792 27.5498C29.1994 27.7192 29.4462 27.9754 29.5722 28.2718C29.6869 28.5414 29.6869 28.8109 29.5702 29.0309C29.4204 29.3149 29.092 29.4843 28.6923 29.4843H28.6912Z" fill="url(#paint2_linear_81_12437)"/>
<defs>
<radialGradient id="paint0_radial_81_12437" cx="0" cy="0" r="1" gradientUnits="userSpaceOnUse" gradientTransform="translate(28.1247 28.825) rotate(27.87) scale(5.04571 1.78835)">
<stop stop-color="#6B7680"/>
<stop offset="0.06" stop-color="#727C86"/>
<stop offset="0.16" stop-color="#889199"/>
<stop offset="0.25" stop-color="#949CA3"/>
<stop offset="0.32" stop-color="#A2A9B0"/>
<stop offset="0.43" stop-color="#B3B9BE"/>
<stop offset="0.48" stop-color="#BCC1C6"/>
<stop offset="0.65" stop-color="#D0D4D7"/>
<stop offset="0.81" stop-color="#EBEDEE"/>
<stop offset="0.95" stop-color="white"/>
</radialGradient>
<linearGradient id="paint1_linear_81_12437" x1="26.7991" y1="28.4224" x2="30.0359" y2="28.4224" gradientUnits="userSpaceOnUse">
<stop stop-color="#D0D0D0"/>
<stop offset="0.34" stop-color="#E1E1E1"/>
<stop offset="0.81" stop-color="white"/>
</linearGradient>
<linearGradient id="paint2_linear_81_12437" x1="27.1782" y1="28.4226" x2="29.6569" y2="28.4226" gradientUnits="userSpaceOnUse">
<stop offset="0.19" stop-color="white"/>
<stop offset="0.66" stop-color="#E1E1E1"/>
<stop offset="1" stop-color="#D0D0D0"/>
</linearGradient>
</defs>
</svg>
