<svg width="30" height="21" viewBox="0 0 30 21" fill="none" xmlns="http://www.w3.org/2000/svg">
<path d="M0.734801 10.9733L4.74368 12.6283L3.89361 13.025C3.65419 13.1465 3.54865 13.4307 3.65419 13.6779L4.80939 16.1591C4.86524 16.2811 4.96954 16.3776 5.0948 16.4224C5.21799 16.4754 5.35967 16.4754 5.48287 16.4224L14.2706 12.3014L14.3815 11.1318L14.5351 9.56803C14.5393 9.51866 14.5533 9.47062 14.5762 9.42668C14.599 9.38274 14.6304 9.34376 14.6684 9.312C14.7065 9.28024 14.7504 9.25631 14.7977 9.24162C14.845 9.22692 14.8948 9.22173 14.9441 9.22636C15.0105 9.23183 15.0741 9.25514 15.1283 9.29381C15.1826 9.33249 15.2253 9.38509 15.2521 9.44606C15.2845 9.50355 15.2989 9.5709 15.294 9.63825L14.2755 20.4313C14.3879 20.5131 14.516 20.5709 14.6517 20.601C14.7875 20.6311 14.928 20.6329 15.0644 20.6062C15.4529 20.5035 15.7979 20.0493 16.0829 19.3019L20.1595 7.17099L20.2765 6.82604C20.2908 6.77791 20.3144 6.73305 20.3459 6.69403C20.3775 6.65501 20.4165 6.62259 20.4606 6.59863C20.5047 6.57466 20.553 6.55961 20.603 6.55435C20.6529 6.54908 20.7033 6.5537 20.7515 6.56794C20.7996 6.58218 20.8445 6.60575 20.8835 6.63733C20.9225 6.6689 20.9549 6.70785 20.9789 6.75195C21.0029 6.79605 21.0179 6.84444 21.0232 6.89436C21.0284 6.94427 21.0238 6.99474 21.0096 7.04287C21.0046 7.05272 21.003 7.06217 21.0001 7.07038L20.6018 8.23338L20.1546 9.56803L27.0364 6.34351C29.024 5.41459 30.0458 3.53459 29.3591 2.06852C29.1673 1.69079 28.8853 1.36622 28.538 1.1236C28.1907 0.880969 27.7889 0.72778 27.3683 0.677612C26.4186 0.534856 25.448 0.684237 24.5852 1.10593L16.7921 4.74275L8.4269 1.47635C7.37274 1.08047 6.53704 1.09033 5.95144 1.51331C5.70906 1.71272 5.5149 1.96434 5.38349 2.24936C5.25207 2.53439 5.18679 2.84543 5.19253 3.15924C5.19746 3.31817 5.27918 3.46888 5.41101 3.56046L11.0461 7.4215L7.81543 8.95039L2.40044 7.59439C2.29261 7.56861 2.17932 7.57844 2.07753 7.62241C1.97575 7.66639 1.89094 7.74213 1.83578 7.83832L0.490868 10.2547C0.42488 10.3723 0.408273 10.5113 0.44469 10.6412C0.481108 10.7711 0.567575 10.8812 0.685111 10.9474C0.701127 10.9569 0.719196 10.9651 0.734801 10.9733Z" fill="#989AAB"/>
</svg>
