<svg width="24" height="21" viewBox="0 0 24 21" fill="none" xmlns="http://www.w3.org/2000/svg">
<path d="M12.7767 6.15137H1.17188C0.861074 6.15137 0.563003 6.0279 0.343234 5.80813C0.123465 5.58836 0 5.29029 0 4.97949C0 4.66869 0.123465 4.37062 0.343234 4.15085C0.563003 3.93108 0.861074 3.80762 1.17188 3.80762H12.7781C13.0889 3.80762 13.387 3.93108 13.6068 4.15085C13.8265 4.37062 13.95 4.66869 13.95 4.97949C13.95 5.29029 13.8265 5.58836 13.6068 5.80813C13.387 6.0279 13.0889 6.15137 12.7781 6.15137H12.7767ZM22.8281 6.15137H19.8947C19.5839 6.15137 19.2858 6.0279 19.066 5.80813C18.8463 5.58836 18.7228 5.29029 18.7228 4.97949C18.7228 4.66869 18.8463 4.37062 19.066 4.15085C19.2858 3.93108 19.5839 3.80762 19.8947 3.80762H22.8281C23.1389 3.80762 23.437 3.93108 23.6568 4.15085C23.8765 4.37062 24 4.66869 24 4.97949C24 5.29029 23.8765 5.58836 23.6568 5.80813C23.437 6.0279 23.1389 6.15137 22.8281 6.15137ZM22.8281 16.9739H11.2233C10.9125 16.9739 10.6144 16.8504 10.3946 16.6306C10.1749 16.4109 10.0514 16.1128 10.0514 15.802C10.0514 15.4912 10.1749 15.1931 10.3946 14.9734C10.6144 14.7536 10.9125 14.6301 11.2233 14.6301H22.8281C23.1389 14.6301 23.437 14.7536 23.6568 14.9734C23.8765 15.1931 24 15.4912 24 15.802C24 16.1128 23.8765 16.4109 23.6568 16.6306C23.437 16.8504 23.1389 16.9739 22.8281 16.9739ZM4.10531 16.9739H1.17188C0.861074 16.9739 0.563003 16.8504 0.343234 16.6306C0.123465 16.4109 0 16.1128 0 15.802C0 15.4912 0.123465 15.1931 0.343234 14.9734C0.563003 14.7536 0.861074 14.6301 1.17188 14.6301H4.10531C4.41611 14.6301 4.71418 14.7536 4.93395 14.9734C5.15372 15.1931 5.27719 15.4912 5.27719 15.802C5.27719 16.1128 5.15372 16.4109 4.93395 16.6306C4.71418 16.8504 4.41611 16.9739 4.10531 16.9739Z" fill="#989AAB"/>
<path d="M7.66455 20.4465C6.72881 20.4466 5.81405 20.1692 5.03597 19.6494C4.25788 19.1296 3.65141 18.3907 3.29325 17.5262C2.9351 16.6618 2.84134 15.7105 3.02384 14.7927C3.20633 13.8749 3.65689 13.0319 4.31852 12.3702C4.98016 11.7085 5.82316 11.2578 6.74092 11.0753C7.65867 10.8927 8.60996 10.9863 9.47448 11.3444C10.339 11.7025 11.0779 12.3089 11.5978 13.0869C12.1177 13.8649 12.3952 14.7797 12.3952 15.7154C12.3943 16.9698 11.8956 18.1726 11.0087 19.0597C10.1217 19.9467 8.91896 20.4455 7.66455 20.4465ZM7.66455 13.3285C7.19234 13.3284 6.7307 13.4684 6.33803 13.7307C5.94537 13.993 5.6393 14.3658 5.45855 14.8021C5.2778 15.2383 5.23048 15.7184 5.32258 16.1815C5.41469 16.6447 5.64207 17.0701 5.97597 17.404C6.30988 17.7379 6.7353 17.9653 7.19845 18.0574C7.66159 18.1495 8.14164 18.1022 8.57789 17.9214C9.01414 17.7407 9.38699 17.4346 9.64928 17.0419C9.91157 16.6493 10.0515 16.1876 10.0514 15.7154C10.0504 15.0827 9.79864 14.4761 9.35123 14.0287C8.90382 13.5813 8.29728 13.3295 7.66455 13.3285ZM16.3355 9.71072C15.3998 9.71072 14.4851 9.43325 13.707 8.91339C12.929 8.39353 12.3226 7.65464 11.9645 6.79014C11.6064 5.92565 11.5127 4.97438 11.6953 4.05664C11.8778 3.1389 12.3284 2.2959 12.9901 1.63424C13.6518 0.972587 14.4948 0.521994 15.4125 0.339444C16.3302 0.156894 17.2815 0.250585 18.146 0.60867C19.0105 0.966756 19.7494 1.57315 20.2692 2.35118C20.7891 3.1292 21.0666 4.04391 21.0666 4.97963C21.0657 6.23413 20.567 7.437 19.6799 8.32406C18.7929 9.21112 17.59 9.70986 16.3355 9.71072ZM16.3355 2.59276C15.8633 2.59276 15.4017 2.73278 15.0091 2.99513C14.6165 3.25747 14.3105 3.63035 14.1298 4.06661C13.9491 4.50287 13.9019 4.98291 13.994 5.44602C14.0862 5.90913 14.3136 6.33452 14.6475 6.66837C14.9815 7.00223 15.4069 7.22957 15.87 7.32163C16.3332 7.41369 16.8132 7.36635 17.2494 7.18558C17.6856 7.00482 18.0584 6.69875 18.3207 6.3061C18.583 5.91344 18.7229 5.45182 18.7228 4.97963C18.7218 4.34682 18.47 3.74021 18.0225 3.29279C17.575 2.84536 16.9683 2.59362 16.3355 2.59276Z" fill="#989AAB"/>
</svg>
