<svg width="8" height="15" viewBox="0 0 8 15" fill="none" xmlns="http://www.w3.org/2000/svg">
<path fill-rule="evenodd" clip-rule="evenodd" d="M7.51037 2.13097C7.81354 1.84873 7.83051 1.37416 7.54827 1.07099C7.26603 0.767822 6.79146 0.750852 6.48828 1.03309L7.51037 2.13097ZM6.48828 14.131C6.79145 14.4133 7.26602 14.3963 7.54826 14.0931C7.8305 13.79 7.81353 13.3154 7.51036 13.0332L6.48828 14.131ZM1.82525 7.74063L7.5102 13.0332L6.48812 14.131L0.802734 8.83811L0.803137 8.83768C0.803281 8.83782 0.803424 8.83795 0.803567 8.83808L1.82525 7.74063ZM1.82533 7.42351L7.5102 2.13108L6.48811 1.0332L0.802734 6.32609L0.803066 6.32645C0.0656209 7.0135 0.0656447 8.15066 0.803137 8.83768L1.82482 7.74023L1.82525 7.74063L1.82566 7.7402C1.76813 7.68664 1.75 7.62948 1.75 7.58203C1.75 7.53458 1.76812 7.47742 1.82566 7.42386L1.82533 7.42351ZM1.82533 7.42351L0.803567 6.32598C0.8034 6.32614 0.803233 6.32629 0.803066 6.32645L1.82482 7.42397L1.82533 7.42351Z" fill="white"/>
</svg>
