<svg width="25" height="33" viewBox="0 0 25 33" fill="none" xmlns="http://www.w3.org/2000/svg">
<path d="M12.5 0.390625C5.884 0.390625 0.5 5.81196 0.5 12.4773C0.5 21.948 11.372 31.7266 11.8347 32.1373C12.0177 32.3007 12.2544 32.3912 12.4997 32.3914C12.7451 32.3917 12.982 32.3017 13.1653 32.1386C13.628 31.7266 24.5 21.948 24.5 12.4773C24.5 5.81196 19.116 0.390625 12.5 0.390625ZM12.5 19.0573C8.824 19.0573 5.83333 16.0666 5.83333 12.3906C5.83333 8.71463 8.824 5.72396 12.5 5.72396C16.176 5.72396 19.1667 8.71463 19.1667 12.3906C19.1667 16.0666 16.176 19.0573 12.5 19.0573Z" fill="#2563EB"/>
</svg>
