<svg width="24" height="24" viewBox="0 0 24 24" fill="none" xmlns="http://www.w3.org/2000/svg">
<path d="M12 1.73608C9.93224 1.73608 7.91096 2.34923 6.19172 3.49799C4.47248 4.64675 3.1325 6.27953 2.34122 8.18985C1.54994 10.1002 1.34291 12.2022 1.7463 14.2302C2.14969 16.2582 3.14539 18.121 4.60748 19.5831C6.06957 21.0452 7.9324 22.0409 9.96038 22.4443C11.9884 22.8477 14.0904 22.6406 16.0007 21.8494C17.9111 21.0581 19.5438 19.7181 20.6926 17.9989C21.8414 16.2796 22.4545 14.2583 22.4545 12.1906C22.4545 9.41791 21.353 6.75876 19.3924 4.79815C17.4318 2.83754 14.7727 1.73608 12 1.73608ZM17.384 9.36043L10.6633 16.0812C10.5935 16.1504 10.5107 16.2052 10.4198 16.2423C10.3288 16.2795 10.2314 16.2983 10.1331 16.2978H10.0883C9.98376 16.2908 9.88188 16.262 9.78925 16.2131C9.69662 16.1642 9.61532 16.0964 9.55061 16.014L6.5636 12.2802C6.49262 12.205 6.43803 12.1159 6.40329 12.0185C6.36855 11.9211 6.35441 11.8176 6.36178 11.7144C6.36915 11.6113 6.39786 11.5108 6.44609 11.4193C6.49432 11.3279 6.56102 11.2474 6.64197 11.1831C6.72292 11.1187 6.81635 11.0719 6.91634 11.0455C7.01633 11.0192 7.12071 11.0139 7.22285 11.03C7.325 11.0461 7.42269 11.0832 7.50974 11.139C7.59678 11.1949 7.67129 11.2681 7.72853 11.3543L10.1928 14.4309L16.3237 8.30004C16.4643 8.15943 16.655 8.08043 16.8539 8.08043C17.0527 8.08043 17.2434 8.15943 17.384 8.30004C17.5247 8.44066 17.6037 8.63138 17.6037 8.83024C17.6037 9.0291 17.5247 9.21982 17.384 9.36043Z" fill="#2563EB"/>
</svg>
