<svg width="24" height="25" viewBox="0 0 24 25" fill="none" xmlns="http://www.w3.org/2000/svg">
<g clip-path="url(#clip0_81_3661)">
<mask id="mask0_81_3661" style="mask-type:luminance" maskUnits="userSpaceOnUse" x="0" y="0" width="24" height="25">
<path d="M0 0.390625H24V24.3906H0V0.390625Z" fill="white"/>
</mask>
<g mask="url(#mask0_81_3661)">
<path fill-rule="evenodd" clip-rule="evenodd" d="M4 16.0576V5.39062C4 4.28562 4.895 3.39062 6 3.39062H18C19.105 3.39062 20 4.28562 20 5.39062V16.0576C20 16.7836 19.606 17.4536 18.971 17.8056L12.971 21.1386C12.367 21.4746 11.632 21.4746 11.028 21.1386L5.028 17.8056C4.394 17.4526 4 16.7836 4 16.0576Z" stroke="#F7F7F7" stroke-width="1.5" stroke-linecap="round" stroke-linejoin="round"/>
<path fill-rule="evenodd" clip-rule="evenodd" d="M10.802 14.2996L11.632 13.8636C11.863 13.7426 12.139 13.7426 12.37 13.8636L13.2 14.2996C13.468 14.4406 13.791 14.4166 14.035 14.2386L14.345 14.0136C14.589 13.8366 14.711 13.5356 14.661 13.2386L14.502 12.3146C14.458 12.0576 14.543 11.7946 14.73 11.6126L15.401 10.9586C15.617 10.7476 15.695 10.4326 15.602 10.1456L15.484 9.78162C15.391 9.49462 15.143 9.28562 14.844 9.24162L13.916 9.10662C13.658 9.06962 13.435 8.90662 13.319 8.67262L12.904 7.83162C12.769 7.56162 12.493 7.39062 12.191 7.39062H11.808C11.506 7.39062 11.23 7.56162 11.097 7.83262L10.682 8.67362C10.566 8.90762 10.343 9.07063 10.085 9.10763L9.158 9.24162C8.859 9.28562 8.611 9.49462 8.518 9.78162L8.4 10.1456C8.307 10.4326 8.384 10.7476 8.601 10.9586L9.272 11.6126C9.459 11.7946 9.544 12.0576 9.5 12.3146L9.341 13.2386C9.29 13.5366 9.413 13.8366 9.657 14.0136L9.967 14.2386C10.211 14.4156 10.534 14.4396 10.802 14.2996Z" stroke="#F7F7F7" stroke-width="1.5" stroke-linecap="round" stroke-linejoin="round"/>
</g>
</g>
<defs>
<clipPath id="clip0_81_3661">
<rect width="24" height="24" fill="white" transform="translate(0 0.390625)"/>
</clipPath>
</defs>
</svg>
