<svg width="63" height="89" viewBox="0 0 63 89" fill="none" xmlns="http://www.w3.org/2000/svg">
<path d="M26.1691 5.83432L26.5059 22.1847L0.499998 35.2578L0.499998 43.4613L26.8151 37.2026L27.1615 54.0314L21.0089 58.4486L21.0089 65.8633L31.5001 60.8152L41.9911 65.8635L41.9911 58.4488L35.8385 54.0316L36.1849 37.2028L62.5 43.4615L62.5 35.2579L36.494 22.1847L36.8305 5.83432C36.8923 2.84724 34.4877 0.392668 31.5001 0.392668C28.5125 0.392668 26.1079 2.84724 26.1691 5.83432ZM18.5285 84.1561L18.5285 73.9865L23.7172 73.9865L23.7172 84.1561L18.5285 84.1561ZM39.283 84.1561L39.283 73.9865L44.4716 73.9865L44.4716 84.1561L39.283 84.1561ZM28.9058 88.9451L28.9058 73.9863L34.0944 73.9863L34.0944 88.9451L28.9058 88.9451Z" fill="#989AAB"/>
</svg>
