<svg width="20" height="17" viewBox="0 0 20 17" fill="none" xmlns="http://www.w3.org/2000/svg">
<path d="M1.9154 12.7174L1.36056 4.09878C1.32973 3.61586 1.90979 3.34965 2.2554 3.68685L4.77086 6.13973C4.77086 6.13973 7.64593 3.27772 9.14229 1.78134C9.62334 1.29935 10.4014 1.30122 10.8797 1.78414C12.362 3.27959 15.2278 6.14439 15.2278 6.14439C15.2278 6.14439 16.7102 4.69004 17.7451 3.67564C18.0907 3.33657 18.6699 3.60652 18.6381 4.08944L18.0832 12.7166C17.974 14.4184 16.5608 15.743 14.856 15.743H5.14355C3.43794 15.743 2.02561 14.4184 1.9154 12.7174Z" stroke="#2563EB" stroke-width="2" stroke-linecap="round" stroke-linejoin="round"/>
<path d="M1.82422 11.3135H18.1724" stroke="#2563EB" stroke-width="2" stroke-linecap="round" stroke-linejoin="round"/>
</svg>
