<svg width="8" height="15" viewBox="0 0 8 15" fill="none" xmlns="http://www.w3.org/2000/svg">
<path fill-rule="evenodd" clip-rule="evenodd" d="M1.51105 1.03309C1.20788 0.750852 0.733311 0.767822 0.451071 1.07099C0.168832 1.37416 0.185801 1.84873 0.488965 2.13097L0.488961 2.13097H0.488971L6.17434 7.42386C6.23188 7.47742 6.25 7.53458 6.25 7.58203C6.25 7.62948 6.23188 7.68664 6.17435 7.7402L0.488971 13.0331L0.488961 13.0331C0.185791 13.3153 0.168821 13.7899 0.451061 14.093C0.733301 14.3962 1.20787 14.4132 1.51104 14.1309L7.19644 8.83808C7.93452 8.15094 7.93452 7.01312 7.19643 6.32598L1.51105 1.03309ZM1.51105 1.03309L0.488971 2.13097L0.488965 2.13097L1.51105 1.03309Z" fill="#898D8F"/>
</svg>
