<svg width="18" height="19" viewBox="0 0 18 19" fill="none" xmlns="http://www.w3.org/2000/svg">
<path d="M13.9999 12.0826C13.4756 12.0839 12.9591 12.2091 12.4925 12.4481C12.0259 12.6871 11.6224 13.033 11.3149 13.4576L7.13574 10.6718C7.39925 9.96958 7.39925 9.19565 7.13574 8.49345L11.3149 5.70761C11.784 6.34356 12.4645 6.79138 13.2341 6.97064C14.0037 7.14989 14.812 7.04882 15.5138 6.68558C16.2156 6.32234 16.7649 5.72075 17.063 4.98888C17.361 4.25702 17.3883 3.44285 17.1399 2.69267C16.8916 1.94249 16.3838 1.30545 15.708 0.896024C15.0321 0.486595 14.2323 0.331607 13.4524 0.458907C12.6725 0.586207 11.9636 0.987449 11.4529 1.59055C10.9423 2.19364 10.6635 2.95906 10.6666 3.74928C10.6722 3.87069 10.6844 3.99171 10.7032 4.11178L6.21074 7.10678C5.73197 6.67519 5.13835 6.39167 4.50175 6.29055C3.86515 6.18944 3.21288 6.27506 2.62395 6.53706C2.03502 6.79906 1.53468 7.2262 1.18354 7.76674C0.832397 8.30728 0.645508 8.93803 0.645508 9.58261C0.645508 10.2272 0.832397 10.858 1.18354 11.3985C1.53468 11.939 2.03502 12.3662 2.62395 12.6282C3.21288 12.8902 3.86515 12.9758 4.50175 12.8747C5.13835 12.7736 5.73197 12.49 6.21074 12.0584L10.7032 15.0534C10.6844 15.1735 10.6722 15.2945 10.6666 15.4159C10.6666 16.0752 10.8621 16.7197 11.2283 17.2678C11.5946 17.816 12.1152 18.2433 12.7243 18.4955C13.3334 18.7478 14.0036 18.8138 14.6502 18.6852C15.2968 18.5566 15.8908 18.2391 16.3569 17.773C16.8231 17.3068 17.1406 16.7129 17.2692 16.0662C17.3978 15.4196 17.3318 14.7494 17.0795 14.1403C16.8272 13.5312 16.4 13.0107 15.8518 12.6444C15.3036 12.2781 14.6592 12.0826 13.9999 12.0826ZM13.9999 2.08261C14.3295 2.08261 14.6518 2.18036 14.9259 2.3635C15.1999 2.54663 15.4136 2.80693 15.5397 3.11148C15.6659 3.41602 15.6989 3.75113 15.6345 4.07443C15.5702 4.39773 15.4115 4.69471 15.1784 4.92779C14.9453 5.16088 14.6484 5.31961 14.3251 5.38392C14.0018 5.44823 13.6666 5.41523 13.3621 5.28908C13.0576 5.16293 12.7973 4.94931 12.6141 4.67523C12.431 4.40115 12.3332 4.07892 12.3332 3.74928C12.3332 3.30725 12.5088 2.88333 12.8214 2.57077C13.134 2.25821 13.5579 2.08261 13.9999 2.08261ZM3.9999 11.2493C3.67027 11.2493 3.34804 11.1515 3.07395 10.9684C2.79987 10.7853 2.58625 10.525 2.4601 10.2204C2.33396 9.91588 2.30095 9.58077 2.36526 9.25746C2.42957 8.93416 2.5883 8.63719 2.82139 8.4041C3.05448 8.17102 3.35145 8.01228 3.67475 7.94797C3.99806 7.88366 4.33317 7.91667 4.63771 8.04281C4.94225 8.16896 5.20255 8.38258 5.38569 8.65666C5.56882 8.93075 5.66657 9.25298 5.66657 9.58261C5.66657 10.0246 5.49098 10.4486 5.17842 10.7611C4.86585 11.0737 4.44193 11.2493 3.9999 11.2493ZM13.9999 17.0826C13.6703 17.0826 13.348 16.9849 13.074 16.8017C12.7999 16.6186 12.5863 16.3583 12.4601 16.0538C12.334 15.7492 12.301 15.4141 12.3653 15.0908C12.4296 14.7675 12.5883 14.4705 12.8214 14.2374C13.0545 14.0043 13.3515 13.8456 13.6748 13.7813C13.9981 13.717 14.3332 13.75 14.6377 13.8761C14.9423 14.0023 15.2026 14.2159 15.3857 14.49C15.5688 14.7641 15.6666 15.0863 15.6666 15.4159C15.6666 15.858 15.491 16.2819 15.1784 16.5945C14.8659 16.907 14.4419 17.0826 13.9999 17.0826Z" fill="white"/>
</svg>
