<svg width="20" height="21" viewBox="0 0 20 21" fill="none" xmlns="http://www.w3.org/2000/svg">
<path d="M14.6512 20.582H1.62791C1.19616 20.582 0.782095 20.4105 0.476803 20.1052C0.171511 19.7999 0 19.3859 0 18.9541V2.20994C0 1.77819 0.171511 1.36413 0.476803 1.05883C0.782095 0.753542 1.19616 0.582031 1.62791 0.582031H14.6512C15.0829 0.582031 15.497 0.753542 15.8023 1.05883C16.1076 1.36413 16.2791 1.77819 16.2791 2.20994V12.4425C16.2791 12.6275 16.2056 12.805 16.0747 12.9358C15.9439 13.0667 15.7664 13.1402 15.5814 13.1402C15.3964 13.1402 15.2189 13.0667 15.0881 12.9358C14.9572 12.805 14.8837 12.6275 14.8837 12.4425V2.20994C14.883 2.14848 14.8583 2.08975 14.8148 2.0463C14.7713 2.00284 14.7126 1.9781 14.6512 1.97738H1.62791C1.56645 1.9781 1.50772 2.00284 1.46426 2.0463C1.42081 2.08975 1.39607 2.14848 1.39535 2.20994V18.9541C1.39607 19.0156 1.42081 19.0743 1.46426 19.1178C1.50772 19.1612 1.56645 19.186 1.62791 19.1867H14.6512C14.826 19.1174 15.0209 19.1189 15.1946 19.191C15.3683 19.2631 15.507 19.4 15.5814 19.5727C15.6176 19.6559 15.6368 19.7454 15.6381 19.8361C15.6393 19.9267 15.6224 20.0167 15.5885 20.1008C15.5545 20.1849 15.5042 20.2614 15.4404 20.3258C15.3765 20.3902 15.3005 20.4413 15.2167 20.476C15.0369 20.5478 14.8448 20.5838 14.6512 20.582Z" fill="white"/>
<path d="M12.3256 5.69808H3.95353C3.7685 5.69808 3.59104 5.62458 3.4602 5.49374C3.32936 5.3629 3.25586 5.18544 3.25586 5.00041C3.25586 4.81537 3.32936 4.63792 3.4602 4.50708C3.59104 4.37624 3.7685 4.30273 3.95353 4.30273H12.3256C12.5107 4.30273 12.6881 4.37624 12.819 4.50708C12.9498 4.63792 13.0233 4.81537 13.0233 5.00041C13.0233 5.18544 12.9498 5.3629 12.819 5.49374C12.6881 5.62458 12.5107 5.69808 12.3256 5.69808ZM12.3256 9.41901H3.95353C3.7685 9.41901 3.59104 9.34551 3.4602 9.21467C3.32936 9.08383 3.25586 8.90637 3.25586 8.72134C3.25586 8.5363 3.32936 8.35885 3.4602 8.22801C3.59104 8.09717 3.7685 8.02366 3.95353 8.02366H12.3256C12.5107 8.02366 12.6881 8.09717 12.819 8.22801C12.9498 8.35885 13.0233 8.5363 13.0233 8.72134C13.0233 8.90637 12.9498 9.08383 12.819 9.21467C12.6881 9.34551 12.5107 9.41901 12.3256 9.41901ZM10 13.1399H3.95353C3.7685 13.1399 3.59104 13.0664 3.4602 12.9356C3.32936 12.8048 3.25586 12.6273 3.25586 12.4423C3.25586 12.2572 3.32936 12.0798 3.4602 11.9489C3.59104 11.8181 3.7685 11.7446 3.95353 11.7446H10C10.1851 11.7446 10.3625 11.8181 10.4934 11.9489C10.6242 12.0798 10.6977 12.2572 10.6977 12.4423C10.6977 12.6273 10.6242 12.8048 10.4934 12.9356C10.3625 13.0664 10.1851 13.1399 10 13.1399ZM9.06981 16.8609H3.95353C3.7685 16.8609 3.59104 16.7874 3.4602 16.6565C3.32936 16.5257 3.25586 16.3482 3.25586 16.1632C3.25586 15.9782 3.32936 15.8007 3.4602 15.6699C3.59104 15.539 3.7685 15.4655 3.95353 15.4655H9.06981C9.25485 15.4655 9.4323 15.539 9.56314 15.6699C9.69398 15.8007 9.76749 15.9782 9.76749 16.1632C9.76749 16.3482 9.69398 16.5257 9.56314 16.6565C9.4323 16.7874 9.25485 16.8609 9.06981 16.8609ZM15.5814 20.5818C14.7075 20.5818 13.8532 20.3227 13.1266 19.8371C12.4 19.3516 11.8336 18.6615 11.4992 17.8541C11.1647 17.0467 11.0772 16.1583 11.2477 15.3012C11.4182 14.444 11.8391 13.6567 12.457 13.0388C13.075 12.4208 13.8623 12 14.7194 11.8295C15.5765 11.659 16.465 11.7465 17.2724 12.0809C18.0798 12.4154 18.7699 12.9817 19.2554 13.7084C19.7409 14.435 20 15.2893 20 16.1632C19.9988 17.3347 19.5329 18.4579 18.7045 19.2863C17.8761 20.1146 16.7529 20.5806 15.5814 20.5818ZM15.5814 13.1399C14.9835 13.1399 14.399 13.3173 13.9018 13.6495C13.4046 13.9817 13.0171 14.4538 12.7883 15.0063C12.5595 15.5587 12.4996 16.1666 12.6163 16.753C12.7329 17.3395 13.0209 17.8782 13.4437 18.301C13.8665 18.7238 14.4052 19.0117 14.9916 19.1284C15.5781 19.245 16.186 19.1851 16.7384 18.9563C17.2908 18.7275 17.763 18.34 18.0952 17.8428C18.4274 17.3457 18.6047 16.7611 18.6047 16.1632C18.6037 15.3617 18.2849 14.5933 17.7181 14.0265C17.1514 13.4598 16.383 13.1409 15.5814 13.1399Z" fill="white"/>
<path d="M15.1155 17.7921C14.9306 17.792 14.7532 17.7183 14.6225 17.5875L13.6923 16.6572C13.6237 16.5934 13.5687 16.5163 13.5306 16.4308C13.4925 16.3452 13.472 16.2528 13.4703 16.1591C13.4687 16.0654 13.4859 15.9724 13.521 15.8855C13.5561 15.7986 13.6083 15.7197 13.6746 15.6535C13.7408 15.5872 13.8197 15.535 13.9066 15.4999C13.9935 15.4648 14.0865 15.4476 14.1802 15.4492C14.2739 15.4509 14.3663 15.4714 14.4518 15.5095C14.5374 15.5477 14.6144 15.6026 14.6783 15.6712L15.1155 16.1084L16.483 14.741C16.6152 14.6177 16.7901 14.5506 16.9709 14.5538C17.1516 14.557 17.3241 14.6302 17.4519 14.7581C17.5797 14.8859 17.653 15.0583 17.6562 15.2391C17.6593 15.4198 17.5923 15.5948 17.469 15.727L15.6085 17.5875C15.4778 17.7183 15.3005 17.792 15.1155 17.7921Z" fill="white"/>
</svg>
