<svg width="20" height="21" viewBox="0 0 20 21" fill="none" xmlns="http://www.w3.org/2000/svg">
<path d="M19.286 0.582031C19.1751 0.58203 19.0656 0.60782 18.9664 0.657365L13.5536 3.36448L7.433 0.643805C7.423 0.639536 7.41157 0.638783 7.40086 0.634514C7.37332 0.624215 7.34517 0.615632 7.31657 0.608817C7.28813 0.601176 7.25927 0.595209 7.23014 0.590946C7.17215 0.586176 7.11386 0.586176 7.05587 0.590946C7.02671 0.595187 6.9979 0.601144 6.96945 0.608817C6.94082 0.615652 6.91272 0.624218 6.88515 0.634514C6.87444 0.638783 6.86302 0.639494 6.85301 0.643805L0.42454 3.50092C0.298225 3.55699 0.190898 3.64852 0.115582 3.7644C0.0402671 3.88028 0.000200523 4.01552 0.000244176 4.15373V19.8678C0.000306203 19.9867 0.030062 20.1038 0.0868124 20.2083C0.143563 20.3128 0.225512 20.4015 0.325225 20.4664C0.424953 20.5313 0.539331 20.5703 0.657961 20.5798C0.776591 20.5892 0.895708 20.5689 1.00448 20.5206L7.14296 17.7921L13.2814 20.5206C13.2922 20.5249 13.3036 20.5206 13.3143 20.5271C13.3997 20.5653 13.4925 20.584 13.586 20.5819C13.6795 20.5798 13.7714 20.5569 13.855 20.5149C13.8664 20.51 13.8793 20.5149 13.8907 20.5071L19.6049 17.65C19.7236 17.5906 19.8234 17.4994 19.8932 17.3864C19.963 17.2735 19.9999 17.1434 19.9999 17.0107V1.29665C20.0001 0.902158 19.6805 0.582199 19.286 0.582031ZM6.42872 16.5464L1.42878 18.7685V4.61803L6.42872 2.3959V16.5464ZM12.8572 18.7685L7.85725 16.5464V2.3959L12.8572 4.61799V18.7685ZM18.5714 16.5693L14.2857 18.7121V4.59514L18.5714 2.45232V16.5693Z" fill="white"/>
</svg>
