<svg width="24" height="25" viewBox="0 0 24 25" fill="none" xmlns="http://www.w3.org/2000/svg">
<g clip-path="url(#clip0_81_12298)">
<path d="M18.75 0.390625C15.855 0.390625 13.5 2.74563 13.5 5.64062C13.5 8.33463 17.712 13.1061 18.192 13.6416C18.3345 13.7991 18.537 13.8906 18.75 13.8906C18.963 13.8906 19.1655 13.7991 19.308 13.6416C19.788 13.1061 24 8.33463 24 5.64062C24 2.74563 21.645 0.390625 18.75 0.390625ZM18.75 7.89062C17.508 7.89062 16.5 6.88263 16.5 5.64062C16.5 4.39862 17.508 3.39062 18.75 3.39062C19.992 3.39062 21 4.39862 21 5.64062C21 6.88263 19.992 7.89062 18.75 7.89062ZM0.471 9.20162C0.331917 9.2577 0.212766 9.35407 0.128842 9.47835C0.0449186 9.60263 5.15141e-05 9.74916 0 9.89913L0 23.6406C0 23.8896 0.1245 24.1221 0.33 24.2616C0.456 24.3456 0.6015 24.3906 0.75 24.3906C0.8445 24.3906 0.939 24.3726 1.029 24.3366L7.5 21.7476V6.39062L0.471 9.20162Z" fill="#2563EB"/>
<path d="M20.424 14.6436C19.998 15.1176 19.3875 15.3906 18.75 15.3906C18.1125 15.3906 17.502 15.1176 17.076 14.6436C16.923 14.4741 16.7265 14.2506 16.5 13.9851V24.3906L23.529 21.5796C23.814 21.4671 24 21.1896 24 20.8836V9.85712C22.7715 11.9376 21.129 13.8576 20.424 14.6436ZM12.4725 7.77963L9 6.39062V21.7476L15 24.1476V12.1026C14.0415 10.8111 13.041 9.25563 12.4725 7.77963Z" fill="#2563EB"/>
</g>
<defs>
<clipPath id="clip0_81_12298">
<rect width="24" height="24" fill="white" transform="translate(0 0.390625)"/>
</clipPath>
</defs>
</svg>
