<svg width="20" height="21" viewBox="0 0 20 21" fill="none" xmlns="http://www.w3.org/2000/svg">
<g clip-path="url(#clip0_81_5802)">
<path d="M10 0.582031C4.48533 0.582031 0 5.06736 0 10.582C0 16.0967 4.48533 20.582 10 20.582C15.5147 20.582 20 16.0967 20 10.582C20 5.06736 15.5147 0.582031 10 0.582031ZM10 18.582C5.58933 18.582 2 14.9927 2 10.582C2 6.17136 5.58933 2.58203 10 2.58203C14.4107 2.58203 18 6.17136 18 10.582C18 14.9927 14.4107 18.582 10 18.582Z" fill="white"/>
<path d="M7.99949 8.58152L4.99683 15.5842L11.9995 12.5815L15.0022 5.57886L7.99949 8.58152ZM9.99949 11.5842C9.44483 11.5842 8.99683 11.1362 8.99683 10.5815C8.99683 10.0269 9.44483 9.57886 9.99949 9.57886C10.5542 9.57886 11.0022 10.0269 11.0022 10.5815C11.0022 11.1362 10.5542 11.5842 9.99949 11.5842Z" fill="white"/>
</g>
<defs>
<clipPath id="clip0_81_5802">
<rect width="20" height="20" fill="white" transform="translate(0 0.582031)"/>
</clipPath>
</defs>
</svg>
