<svg width="20" height="19" viewBox="0 0 20 19" fill="none" xmlns="http://www.w3.org/2000/svg">
<path fill-rule="evenodd" clip-rule="evenodd" d="M12.018 17.7542C12.018 17.0629 11.4576 16.5025 10.7663 16.5025H9.23367C9.0693 16.5025 8.90654 16.5349 8.75468 16.5978C8.60282 16.6607 8.46483 16.7529 8.34861 16.8691C8.23238 16.9853 8.14018 17.1233 8.07729 17.2752C8.01439 17.427 7.98202 17.5898 7.98203 17.7542C7.98203 18.4454 8.54242 19.0058 9.23367 19.0058H10.7663C11.4576 19.0058 12.018 18.4454 12.018 17.7542ZM2.63129 14.5267C2.84035 14.5427 3.09328 14.5518 3.34734 14.537C3.50659 15.3444 3.9412 16.0716 4.57696 16.5942C5.21272 17.1168 6.01019 17.4026 6.8332 17.4026H7.31078C7.2684 17.635 7.26829 17.8732 7.31047 18.1057H6.8332C5.82178 18.1057 4.84342 17.7455 4.07345 17.0897C3.30348 16.4338 2.79222 15.5252 2.63129 14.5267ZM2.27363 13.7785C1.63795 13.6714 1.0608 13.3425 0.644575 12.8502C0.228354 12.3579 -1.24423e-05 11.7341 1.11922e-09 11.0895L1.11922e-09 9.42763C-1.02587e-05 9.06951 0.0705182 8.71489 0.207558 8.38403C0.344598 8.05317 0.545466 7.75255 0.798692 7.49932C1.05192 7.24609 1.35254 7.04521 1.6834 6.90817C2.01426 6.77112 2.36887 6.70059 2.72699 6.7006H2.90852C3.19867 3.03825 6.26281 0.156494 10 0.156494C13.7372 0.156494 16.8013 3.03825 17.0915 6.7006H17.273C17.6311 6.70059 17.9857 6.77112 18.3166 6.90817C18.6475 7.04521 18.9481 7.24609 19.2013 7.49932C19.4545 7.75255 19.6554 8.05317 19.7924 8.38403C19.9295 8.71489 20 9.06951 20 9.42763V11.0895C20 11.4476 19.9295 11.8022 19.7924 12.1331C19.6554 12.4639 19.4545 12.7645 19.2013 13.0178C18.9481 13.271 18.6475 13.4719 18.3166 13.6089C17.9857 13.746 17.6311 13.8165 17.273 13.8165H16.4683C16.1345 13.8165 15.864 13.5459 15.864 13.2122V7.27048C15.864 4.03188 13.2386 1.40649 10 1.40649C6.76141 1.40649 4.13602 4.03188 4.13602 7.27048V13.2122C4.13602 13.4478 4.00113 13.652 3.80434 13.7517C3.26262 13.9396 2.4225 13.8036 2.27363 13.7785Z" fill="white"/>
</svg>
