<svg width="20" height="21" viewBox="0 0 20 21" fill="none" xmlns="http://www.w3.org/2000/svg">
<g clip-path="url(#clip0_81_5833)">
<path d="M10.0258 2.08989C12.3187 2.84927 14.6723 3.74341 16.6848 4.52388C16.8246 5.43989 17.0164 7.01099 17.0531 8.9102C17.0855 11.0735 16.9066 12.2668 16.8273 12.6829C16.6613 13.2559 16.3129 13.8786 15.7918 14.5333C15.1738 15.309 14.3324 16.1157 13.291 16.9301C13.2902 16.9305 13.2894 16.9313 13.2891 16.9317C11.809 18.0934 10.4387 18.8422 10.0258 19.0579C9.61288 18.8426 8.24413 18.0954 6.76483 16.9344L6.76288 16.9329C5.72187 16.1188 4.88085 15.3125 4.26405 14.5372C3.76913 13.9149 3.43007 13.3211 3.25507 12.7723C3.25038 12.754 3.2453 12.7356 3.23944 12.7168C3.16132 12.4524 2.91015 11.3872 2.94804 8.76528C2.98944 7.09497 3.14257 5.60278 3.38163 4.51372C5.38788 3.73677 7.73437 2.84653 10.0258 2.0895M10.0258 0.585205C9.90819 0.585205 9.79023 0.603955 9.67577 0.641846C7.42929 1.38013 5.12499 2.24614 2.78163 3.15395C2.4664 3.27622 2.20194 3.50239 2.03007 3.77739C2.04335 3.77896 1.54843 5.32388 1.46405 8.73599C1.41405 12.1485 1.83905 13.1708 1.82499 13.1719C2.05507 13.9219 2.48554 14.6848 3.10233 15.4606C3.79179 16.327 4.72343 17.2219 5.84882 18.1016C7.71171 19.5637 9.45507 20.4375 9.52812 20.4684C9.68593 20.5458 9.85351 20.5848 10.0262 20.5848H10.0266C10.1996 20.5848 10.3672 20.5454 10.525 20.4676C10.5984 20.4368 12.3437 19.5602 14.2058 18.0985C15.3316 17.218 16.2633 16.3231 16.9531 15.4571C17.6141 14.6262 18.0609 13.811 18.2769 13.0102C18.2683 13.009 18.5809 11.7559 18.5375 8.88442C18.4824 6.01333 18.0824 3.89575 18.0879 3.8938C17.9215 3.56919 17.6297 3.2977 17.2726 3.15903C14.9289 2.25083 12.6242 1.38325 10.3773 0.642627C10.2621 0.604736 10.1441 0.585596 10.0262 0.585596L10.0258 0.585205Z" fill="white"/>
<path d="M7 10.496L8.80585 12.3047L12.5274 8.58203" stroke="white" stroke-width="1.5" stroke-linecap="round" stroke-linejoin="round"/>
</g>
<defs>
<clipPath id="clip0_81_5833">
<rect width="20" height="20" fill="white" transform="translate(0 0.582031)"/>
</clipPath>
</defs>
</svg>
