<svg width="20" height="21" viewBox="0 0 20 21" fill="none" xmlns="http://www.w3.org/2000/svg">
<path d="M18.1587 1.16803C17.355 1.16801 16.5843 1.48722 16.0161 2.05544L4.35155 13.7201H1.8405C1.14765 13.7201 0.585938 14.2818 0.585938 14.9747V14.9753L3.72394 16.8581L5.60674 19.9961C5.7716 19.9961 5.93485 19.9637 6.08715 19.9006C6.23945 19.8375 6.37781 19.745 6.49432 19.6283C6.61088 19.5118 6.70333 19.3735 6.76641 19.2212C6.82949 19.0689 6.86195 18.9057 6.86193 18.7409V16.2305L18.5265 4.56587C18.8079 4.28449 19.0311 3.95045 19.1834 3.58281C19.3356 3.21518 19.414 2.82114 19.414 2.42322V2.42259C19.414 1.7297 18.8523 1.16803 18.1594 1.16803H18.1588H18.1587Z" stroke="white" stroke-width="1.5" stroke-miterlimit="10" stroke-linecap="round" stroke-linejoin="round"/>
<path d="M12.5104 5.56129C12.5104 5.56129 7.1676 4.30418 4.04366 3.56895C2.71929 3.25739 1.34074 3.80149 0.586094 4.93336L0.585938 4.93367L8.74478 9.3269" stroke="white" stroke-width="1.5" stroke-miterlimit="10" stroke-linecap="round" stroke-linejoin="round"/>
<path d="M15.0207 8.07164L17.0129 16.5383C17.3246 17.8629 16.7805 19.2414 15.6486 19.9961H15.6484L11.2551 11.8373" stroke="white" stroke-width="1.5" stroke-miterlimit="10" stroke-linecap="round" stroke-linejoin="round"/>
</svg>
