<svg width="18" height="17" viewBox="0 0 18 17" fill="none" xmlns="http://www.w3.org/2000/svg">
<path d="M6.08324 0.249186C5.08868 0.249186 4.13485 0.644274 3.43159 1.34754C2.72833 2.0508 2.33324 3.00462 2.33324 3.99919V13.5825H1.4999C1.33511 13.5826 1.17403 13.6314 1.03702 13.723C0.900013 13.8146 0.793231 13.9447 0.730172 14.097C0.667114 14.2492 0.650611 14.4168 0.682751 14.5784C0.714891 14.74 0.794229 14.8885 0.910737 15.005L2.5774 16.6717C2.73368 16.8279 2.9456 16.9157 3.16657 16.9157C3.38754 16.9157 3.59946 16.8279 3.75574 16.6717L5.4224 15.005C5.53891 14.8885 5.61825 14.74 5.65039 14.5784C5.68253 14.4168 5.66603 14.2492 5.60297 14.097C5.53991 13.9447 5.43313 13.8146 5.29612 13.723C5.15911 13.6314 4.99803 13.5826 4.83324 13.5825H3.9999V3.99919C3.9999 3.44665 4.2194 2.91675 4.6101 2.52605C5.0008 2.13535 5.5307 1.91585 6.08324 1.91585C6.63577 1.91585 7.16568 2.13535 7.55638 2.52605C7.94708 2.91675 8.16657 3.44665 8.16657 3.99919V13.1659C8.16657 14.1604 8.56166 15.1142 9.26492 15.8175C9.96818 16.5208 10.922 16.9159 11.9166 16.9159C12.9111 16.9159 13.865 16.5208 14.5682 15.8175C15.2715 15.1142 15.6666 14.1604 15.6666 13.1659V5.10752C16.2228 4.91093 16.6916 4.52402 16.9902 4.01518C17.2888 3.50634 17.3978 2.90833 17.2981 2.32686C17.1983 1.74539 16.8963 1.2179 16.4452 0.837625C15.9942 0.45735 15.4232 0.248779 14.8332 0.248779C14.2433 0.248779 13.6723 0.45735 13.2213 0.837625C12.7702 1.2179 12.4681 1.74539 12.3684 2.32686C12.2687 2.90833 12.3777 3.50634 12.6763 4.01518C12.9748 4.52402 13.4437 4.91093 13.9999 5.10752V13.1659C13.9999 13.7184 13.7804 14.2483 13.3897 14.639C12.999 15.0297 12.4691 15.2492 11.9166 15.2492C11.364 15.2492 10.8341 15.0297 10.4434 14.639C10.0527 14.2483 9.83324 13.7184 9.83324 13.1659V3.99919C9.83324 3.00462 9.43815 2.0508 8.73489 1.34754C8.03163 0.644274 7.0778 0.249186 6.08324 0.249186Z" fill="white"/>
</svg>
