<svg width="24" height="25" viewBox="0 0 24 25" fill="none" xmlns="http://www.w3.org/2000/svg">
<path d="M12 21.3906C15.5899 21.3906 18.5 18.4805 18.5 14.8906C18.5 11.3008 15.5899 8.39062 12 8.39062C8.41015 8.39062 5.5 11.3008 5.5 14.8906C5.5 18.4805 8.41015 21.3906 12 21.3906Z" stroke="#F7F7F7" stroke-width="1.5" stroke-linecap="round" stroke-linejoin="round"/>
<path d="M12 17.8906C13.6569 17.8906 15 16.5475 15 14.8906C15 13.2338 13.6569 11.8906 12 11.8906C10.3431 11.8906 9 13.2338 9 14.8906C9 16.5475 10.3431 17.8906 12 17.8906Z" stroke="#F7F7F7" stroke-width="1.5" stroke-linecap="round" stroke-linejoin="round"/>
<path d="M10.8428 8.49938L14.1203 3.81716C14.3075 3.54983 14.6133 3.39063 14.9396 3.39063H18.4983C18.8711 3.39062 19.2131 3.59806 19.3853 3.92881C19.5575 4.25955 19.5314 4.65865 19.3175 4.96412L15.9674 9.75" stroke="#F7F7F7" stroke-width="1.5" stroke-linecap="round" stroke-linejoin="round"/>
<path d="M12 6.8462L9.87965 3.81714C9.69252 3.54983 9.38673 3.39063 9.06043 3.39063H5.50178C5.12889 3.3906 4.78695 3.59806 4.61474 3.9288C4.44253 4.25955 4.46865 4.65864 4.6825 4.96412L8.0326 9.75" stroke="#F7F7F7" stroke-width="1.5" stroke-linecap="round" stroke-linejoin="round"/>
</svg>
